<?xml version="1.0" encoding="UTF-8"?>
<!DOCTYPE svg PUBLIC "-//W3C//DTD SVG 1.1//EN" "http://www.w3.org/Graphics/SVG/1.1/DTD/svg11.dtd">
<!-- Creator: CorelDRAW X7 -->
<svg xmlns="http://www.w3.org/2000/svg" xml:space="preserve" width="34.6468mm" height="11.166mm" version="1.1" style="shape-rendering:geometricPrecision; text-rendering:geometricPrecision; image-rendering:optimizeQuality; fill-rule:evenodd; clip-rule:evenodd"
viewBox="0 0 1533 494"
 xmlns:xlink="http://www.w3.org/1999/xlink">
 <defs>
  <style type="text/css">
   <![CDATA[
    .fil0 {fill:#9FB3AA}
   ]]>
  </style>
 </defs>
 <g id="Layer_x0020_1">
  <metadata id="CorelCorpID_0Corel-Layer"/>
  <path class="fil0" d="M0 494l0 -494 307 0 0 100 -190 0 0 99 170 0 0 100 -170 0 0 195 -117 0zm518 -404l-19 0 0 137 25 0c29,0 52,-6 68,-18 15,-12 23,-30 23,-52 0,-24 -7,-41 -23,-51 -15,-11 -40,-16 -74,-16zm-134 404l0 -494 127 0c41,0 72,3 95,8 22,5 42,14 59,27 19,13 33,29 43,49 10,19 15,39 15,61 0,31 -8,58 -23,82 -16,23 -39,41 -69,55l151 212 -135 0 -132 -194 -16 0 0 194 -115 0zm445 0l0 -494 304 0 0 102 -190 0 0 89 163 0 0 101 -163 0 0 98 193 0 0 104 -307 0zm397 0l0 -494 304 0 0 102 -190 0 0 89 163 0 0 101 -163 0 0 98 193 0 0 104 -307 0z"/>
 </g>
</svg>
