<?xml version="1.0" encoding="UTF-8"?>
<!DOCTYPE svg PUBLIC "-//W3C//DTD SVG 1.1//EN" "http://www.w3.org/Graphics/SVG/1.1/DTD/svg11.dtd">
<!-- Creator: CorelDRAW X7 -->
<svg xmlns="http://www.w3.org/2000/svg" xml:space="preserve" width="23.9148mm" height="28.2757mm" version="1.1" style="shape-rendering:geometricPrecision; text-rendering:geometricPrecision; image-rendering:optimizeQuality; fill-rule:evenodd; clip-rule:evenodd"
viewBox="0 0 181 214"
 xmlns:xlink="http://www.w3.org/1999/xlink">
 <defs>
  <style type="text/css">
   <![CDATA[
    .fil0 {fill:#9FB3AA}
   ]]>
  </style>
 </defs>
 <g id="Layer_x0020_1">
  <metadata id="CorelCorpID_0Corel-Layer"/>
  <path class="fil0" d="M98 214c-33,0 -59,-51 -91,-78 -19,-21 6,-45 26,-26l17 17 0 -110c1,-20 32,-25 33,0l0 89 2 0 0 -37c0,-23 31,-24 31,0l0 37 2 0 0 -30c0,-20 30,-20 30,0l0 30 2 0 0 -22c0,-18 30,-18 31,1 0,34 -2,66 -11,99 -7,17 -21,30 -39,30l-33 0z"/>
 </g>
</svg>
