<?xml version="1.0" encoding="UTF-8"?>
<!DOCTYPE svg PUBLIC "-//W3C//DTD SVG 1.1//EN" "http://www.w3.org/Graphics/SVG/1.1/DTD/svg11.dtd">
<!-- Creator: CorelDRAW X7 -->
<svg xmlns="http://www.w3.org/2000/svg" xml:space="preserve" width="59.3597mm" height="15.3172mm" version="1.1" style="shape-rendering:geometricPrecision; text-rendering:geometricPrecision; image-rendering:optimizeQuality; fill-rule:evenodd; clip-rule:evenodd"
viewBox="0 0 1678 433"
 xmlns:xlink="http://www.w3.org/1999/xlink">
 <defs>
  <style type="text/css">
   <![CDATA[
    .fil1 {fill:#1FBBED}
    .fil3 {fill:#6FD5F5}
    .fil2 {fill:#84DBF5}
    .fil0 {fill:white}
   ]]>
  </style>
 </defs>
 <g id="Layer_x0020_1">
  <metadata id="CorelCorpID_0Corel-Layer"/>
  <g id="_1588489212864">
   <g>
    <path class="fil0" d="M613 322l-23 -1 0 -241 23 -1 0 105c14,1 103,0 124,0l0 -104 23 -1c1,76 0,165 0,243l-24 -1 0 -114 -123 0 0 115zm-28 -243l0 244c0,7 10,5 29,5 4,0 5,-2 5,-5l0 -111 113 0 0 111c0,7 10,5 29,5 3,0 4,-2 4,-5l0 -244c0,-7 -10,-5 -29,-5 -3,0 -4,2 -4,5l0 100 -113 0 0 -100c0,-7 -10,-5 -29,-5 -4,0 -5,2 -5,5z"/>
    <path class="fil0" d="M1476 80l25 -1 73 209c4,-4 67,-187 74,-209l25 0 -87 242 -25 1 -85 -242zm-5 -1c0,13 49,144 54,157l28 79c5,16 3,13 33,13 8,0 12,-21 15,-28l56 -156c4,-12 21,-55 21,-65 0,-7 -12,-5 -31,-5 -6,0 -8,13 -11,22 -6,17 -60,166 -60,174 -5,-3 -17,-42 -19,-48l-48 -138c-5,-12 0,-10 -34,-10 -3,0 -4,2 -4,5z"/>
    <path class="fil0" d="M790 402l2 -21c33,9 39,-10 47,-34 12,-32 12,-20 -5,-62 -7,-17 -47,-114 -48,-124l23 0 51 135 47 -135 23 0 -77 210c-13,28 -24,36 -63,31zm-11 -241c0,11 62,152 62,159 0,6 -3,12 -5,17 -2,5 -3,10 -5,16 -4,8 -10,24 -21,24 -10,0 -16,-3 -23,0 -1,2 -3,22 -3,25 0,7 6,7 22,7 32,0 45,-13 56,-42l63 -170c17,-47 21,-41 -19,-41 -6,0 -10,18 -13,29l-33 93c-3,-10 -35,-90 -41,-109 -6,-16 -2,-13 -35,-13 -4,0 -5,1 -5,5z"/>
    <path class="fil0" d="M1278 292c-16,27 -62,46 -101,24 -34,-19 -48,-65 -36,-102 26,-83 148,-80 143,34l-124 0c-4,47 64,86 102,31 5,2 5,2 9,6l7 7zm-147 -49c0,23 7,43 20,60 23,28 45,28 74,28 13,0 28,-7 36,-12 8,-6 23,-18 23,-28 0,-5 -5,-8 -8,-11 -22,-16 -12,-7 -32,9 -39,30 -77,-8 -77,-36l117 0c15,0 3,-60 -13,-76 -18,-20 -31,-25 -63,-25 -45,0 -77,41 -77,91z"/>
    <path class="fil0" d="M977 188c4,-2 3,-4 8,-9 20,-22 52,-28 80,-15 27,12 47,38 46,79 -1,69 -67,105 -119,68 -9,-6 -8,-9 -15,-16l0 109 -22 0 0 -243 22 0 0 27zm5 -16c0,-18 4,-16 -28,-16 -4,0 -5,1 -5,5l0 244c0,7 10,4 28,4 7,0 5,-12 5,-20l0 -78c8,5 20,20 43,20 28,0 52,-1 73,-29 12,-17 21,-43 19,-63 -3,-33 -11,-62 -45,-79 -24,-12 -58,-12 -80,4 -4,2 -7,5 -10,8z"/>
    <path class="fil0" d="M198 37l228 -32c3,2 1,-1 2,5 0,0 0,5 0,6 -1,32 1,178 -1,191l-230 0c-1,-4 -2,-160 0,-168 0,0 0,-1 0,-1 0,0 1,-1 1,-1zm-7 -1l0 171c0,4 1,5 5,5l231 0c4,0 5,-1 5,-5l0 -202c0,-9 -24,-3 -37,-2 -29,4 -59,10 -89,13 -20,2 -39,5 -59,8l-45 6c-5,0 -11,0 -11,6z"/>
    <path class="fil0" d="M426 428l-227 -32c-4,-2 -3,-1 -3,-8 0,-30 -1,-151 1,-161l230 1c3,11 1,144 1,177 0,5 2,20 -2,23zm-235 -201l0 170c0,7 16,6 25,8l148 20c9,1 20,3 30,4 13,2 38,8 38,-1l0 -201c0,-3 -1,-4 -5,-4l-231 0c-4,0 -5,1 -5,4z"/>
    <path class="fil0" d="M5 370c-2,-9 0,-123 0,-142l173 0 -1 166 -172 -24zm-5 -143l0 144c0,6 11,5 18,6 7,1 15,2 23,4l113 15c10,2 30,7 30,-2l0 -167c0,-3 -1,-4 -5,-4l-174 0c-4,0 -5,1 -5,4z"/>
    <path class="fil0" d="M5 63l173 -24 0 168 -2 0 -171 0 0 -144zm-5 -1l0 145c0,4 1,5 5,5l174 0c4,0 5,-1 5,-5l0 -168c0,-11 -35,-2 -52,1 -16,2 -29,4 -45,6 -16,2 -29,4 -45,6 -11,2 -42,3 -42,10z"/>
    <path class="fil0" d="M1402 180c-18,1 -26,-4 -40,8 -29,24 -19,89 -19,134l-22 0 0 -161 19 0 2 27c12,-19 29,-36 62,-29 1,6 -1,14 -2,21zm-55 -11c-1,-16 -1,-13 -28,-13 -3,0 -4,1 -4,5l0 162c0,7 10,5 29,5 7,0 5,-13 5,-21l0 -78c2,-20 13,-41 35,-44 6,-1 12,2 22,2 2,-5 5,-23 5,-31 0,-7 -33,-6 -46,1 -8,3 -11,7 -18,12z"/>
    <path class="fil0" d="M980 243c0,-20 8,-38 21,-49 3,-2 6,-4 8,-5 14,-8 29,-8 43,-1 33,15 40,66 16,95 -27,34 -88,13 -88,-40zm45 -66c-33,5 -54,34 -51,72 3,33 28,60 64,56 72,-6 65,-138 -13,-128z"/>
    <path class="fil0" d="M1211 182c28,0 40,18 45,42l-89 0c5,-22 23,-42 44,-42zm51 47c-5,-74 -96,-65 -102,0l102 0z"/>
    <path class="fil0" d="M1405 229l72 0 -1 19 -71 0 0 -19zm-5 0c0,17 -3,24 4,24l73 0c7,0 5,-7 5,-24 0,-4 -2,-5 -5,-5l-73 0c-3,0 -4,1 -4,5z"/>
   </g>
   <g>
    <polygon class="fil1" points="198,37 198,206 427,206 426,5 "/>
    <path class="fil1" d="M199 396l227 32 1 -199 -231 0 2 0c0,22 -3,158 1,167z"/>
    <polygon class="fil1" points="5,207 176,207 178,207 178,39 5,63 "/>
    <path class="fil1" d="M5 370l172 24 1 -166 -173 0c0,19 -2,133 0,142z"/>
    <path class="fil1" d="M613 207l123 0 0 114 24 1c0,-78 1,-167 0,-243l-23 1 0 104c-21,0 -110,1 -124,0l0 -105 -23 1 0 241 23 1 0 -115z"/>
    <path class="fil1" d="M1025 177c78,-10 85,122 13,128 -36,4 -61,-23 -64,-56 -3,-38 18,-67 51,-72zm-48 11l0 -27 -22 0 0 243 22 0 0 -109c7,7 6,10 15,16 52,37 118,1 119,-68 1,-41 -19,-67 -46,-79 -28,-13 -60,-7 -80,15 -5,5 -4,7 -8,9z"/>
    <path class="fil1" d="M1561 322l25 -1 87 -242 -25 0c-7,22 -70,205 -74,209l-73 -209 -25 1 85 242z"/>
    <path class="fil1" d="M1262 229l-102 0c6,-65 97,-74 102,0zm16 63l-7 -7c-4,-4 -4,-4 -9,-6 -38,55 -106,16 -102,-31l124 0c5,-114 -117,-117 -143,-34 -12,37 2,83 36,102 39,22 85,3 101,-24z"/>
    <path class="fil1" d="M790 402c39,5 50,-3 63,-31l77 -210 -23 0 -47 135 -51 -135 -23 0c1,10 41,107 48,124 17,42 17,30 5,62 -8,24 -14,43 -47,34l-2 21z"/>
    <path class="fil1" d="M1402 180c1,-7 3,-15 2,-21 -33,-7 -50,10 -62,29l-2 -27 -19 0 0 161 22 0c0,-45 -10,-110 19,-134 14,-12 22,-7 40,-8z"/>
    <polygon class="fil1" points="1405,248 1476,248 1477,229 1405,229 "/>
   </g>
   <path class="fil2" d="M199 396c-4,-9 -1,-145 -1,-167l-2 0 231 0 -1 199c4,-3 2,-18 2,-23 0,-33 2,-166 -1,-177l-230 -1c-2,10 -1,131 -1,161 0,7 -1,6 3,8z"/>
   <path class="fil3" d="M198 37c0,0 -1,1 -1,1 0,0 0,1 0,1 -2,8 -1,164 0,168l230 0c2,-13 0,-159 1,-191 0,-1 0,-6 0,-6 -1,-6 1,-3 -2,-5l1 201 -229 0 0 -169z"/>
  </g>
 </g>
</svg>
