<?xml version="1.0" encoding="UTF-8"?>
<svg width="274px" height="91px" viewBox="0 0 274 91" version="1.1" xmlns="http://www.w3.org/2000/svg" xmlns:xlink="http://www.w3.org/1999/xlink">
    <!-- Generator: Sketch 47.1 (45422) - http://www.bohemiancoding.com/sketch -->
    <title>Logo</title>
    <desc>Created with Sketch.</desc>
    <defs>
        <path d="M2.55060729,17.9757085 C2.55060729,14.3319838 5.22267206,11.2955466 8.50202429,11.2955466 C8.74493927,11.2955466 9.10931174,11.2955466 9.35222672,11.417004 C9.71659919,11.417004 10.0809717,11.417004 10.3238866,11.1740891 C10.5668016,10.9311741 10.8097166,10.5668016 10.8097166,10.3238866 C10.9311741,7.40890688 12.9959514,5.10121457 15.6680162,5.10121457 C17.7327935,5.10121457 19.5546559,6.55870445 20.2834008,8.86639676 C20.4048583,9.35222672 20.8906883,9.71659919 21.3765182,9.71659919 C21.8623482,9.71659919 22.3481781,9.35222672 22.5910931,8.86639676 C23.0769231,7.40890688 24.291498,6.43724696 25.7489879,6.43724696 C26.7206478,6.43724696 27.4493927,6.92307692 27.9352227,7.40890688 C28.1781377,7.65182186 28.6639676,7.77327935 29.0283401,7.77327935 C29.3927126,7.65182186 29.757085,7.40890688 29.8785425,7.04453441 C31.2145749,4.25101215 33.8866397,2.4291498 36.8016194,2.4291498 C39.7165992,2.4291498 42.388664,4.25101215 43.7246964,7.1659919 C43.8461538,7.53036437 44.2105263,7.77327935 44.6963563,7.89473684 C45.0607287,7.89473684 45.5465587,7.77327935 45.7894737,7.40890688 C46.5182186,6.43724696 47.611336,5.82995951 48.8259109,5.82995951 C51.0121457,5.82995951 52.8340081,7.89473684 52.8340081,10.3238866 C52.8340081,10.5668016 52.8340081,10.9311741 52.7125506,11.1740891 C52.5910931,11.5384615 52.7125506,12.0242915 53.0769231,12.2672065 C53.3198381,12.5101215 53.805668,12.6315789 54.1700405,12.6315789 C54.4129555,12.6315789 54.6558704,12.5101215 55.0202429,12.5101215 C57.8137652,12.5101215 60,14.9392713 60,18.097166 C60,21.1336032 57.8137652,23.6842105 55.0202429,23.6842105 C54.1700405,23.6842105 53.3198381,23.4412955 52.4696356,22.8340081 C52.1052632,22.5910931 51.7408907,22.5910931 51.3765182,22.7125506 C51.0121457,22.8340081 50.7692308,23.1983806 50.6477733,23.562753 C49.7975709,26.4777328 47.4898785,28.4210526 44.6963563,28.4210526 C42.9959514,28.4210526 41.417004,27.6923077 40.2024291,26.2348178 C39.9595142,25.8704453 39.4736842,25.7489879 39.1093117,25.8704453 C38.7449393,25.8704453 38.3805668,26.2348178 38.1376518,26.5991903 C37.1659919,28.6639676 35.3441296,29.8785425 33.2793522,29.8785425 C31.4574899,29.8785425 29.757085,28.7854251 28.6639676,27.0850202 C28.4210526,26.7206478 28.0566802,26.4777328 27.6923077,26.4777328 C27.3279352,26.4777328 26.9635628,26.5991903 26.7206478,26.8421053 C25.3846154,28.4210526 23.4412955,29.3927126 21.4979757,29.51417 C21.2550607,29.3927126 21.1336032,29.3927126 21.0121457,29.3927126 C20.6477733,29.2712551 20.2834008,29.3927126 20.0404858,29.6356275 C19.7975709,29.8785425 19.5546559,30.242915 19.5546559,30.6072874 L19.5546559,39.1093117 C19.5546559,39.5951417 19.9190283,40.0809717 20.4048583,40.2024291 C21.7408907,40.6882591 22.5910931,41.902834 22.5910931,43.2388664 C22.5910931,44.9392713 20.0404858,46.5182186 18.097166,46.5182186 C16.1538462,46.5182186 13.6032389,44.9392713 13.6032389,43.2388664 C13.6032389,41.7813765 14.5748988,40.4453441 16.0323887,40.0809717 C16.5182186,39.9595142 17.0040486,39.4736842 17.0040486,38.8663968 L17.0040486,28.4210526 C17.0040486,28.0566802 16.8825911,27.6923077 16.6396761,27.5708502 C15.5465587,26.5991903 14.6963563,25.3846154 14.2105263,23.9271255 C14.0890688,23.562753 13.7246964,23.3198381 13.3603239,23.1983806 C13.2388664,23.1983806 13.1174089,23.1983806 12.9959514,23.1983806 C12.7530364,23.1983806 12.5101215,23.3198381 12.2672065,23.4412955 C11.2955466,24.291498 10.0809717,24.6558704 8.74493927,24.6558704 C5.22267206,24.6558704 2.55060729,21.6194332 2.55060729,17.9757085 Z" id="path-1"></path>
    </defs>
    <g id="Page-1" stroke="none" stroke-width="1" fill="none" fill-rule="evenodd">
        <g id="Logo-Horizontal" transform="translate(-113.000000, -74.000000)">
            <g id="Logo" transform="translate(114.000000, 75.000000)">
                <path d="M111.112,37.224 C112.648008,37.224 113.975994,37.4959973 115.096,38.04 C116.216006,38.5840027 117.143996,39.3199954 117.88,40.248 C118.616004,41.1760046 119.159998,42.2639938 119.512,43.512 C119.864002,44.7600062 120.04,46.1039928 120.04,47.544 C120.04,49.752011 119.632004,51.8399902 118.816,53.808 C117.999996,55.7760098 116.888007,57.4879927 115.48,58.944 C114.071993,60.4000073 112.40801,61.5519958 110.488,62.4 C108.56799,63.2480042 106.488011,63.672 104.248,63.672 C103.959999,63.672 103.456004,63.6640001 102.736,63.648 C102.015996,63.6319999 101.192005,63.5600006 100.264,63.432 C99.3359954,63.3039994 98.3520052,63.1120013 97.312,62.856 C96.2719948,62.5999987 95.2880046,62.2480022 94.36,61.8 L102.664,26.904 L110.104,25.752 L107.128,38.136 C107.768003,37.8479986 108.407997,37.6240008 109.048,37.464 C109.688003,37.3039992 110.375996,37.224 111.112,37.224 Z M104.872,57.768 C105.992006,57.768 107.047995,57.4960027 108.04,56.952 C109.032005,56.4079973 109.887996,55.6800046 110.608,54.768 C111.328004,53.8559954 111.895998,52.8240058 112.312,51.672 C112.728002,50.5199942 112.936,49.3200062 112.936,48.072 C112.936,46.5359923 112.680003,45.3360043 112.168,44.472 C111.655997,43.6079957 110.712007,43.176 109.336,43.176 C108.887998,43.176 108.304004,43.2559992 107.584,43.416 C106.863996,43.5760008 106.216003,43.9119974 105.64,44.424 L102.472,57.576 C102.664001,57.6080002 102.831999,57.6399998 102.976,57.672 C103.120001,57.7040002 103.271999,57.7279999 103.432,57.744 C103.592001,57.7600001 103.783999,57.768 104.008,57.768 L104.872,57.768 Z M123.4,53.112 C123.4,51.0639898 123.759996,49.0800096 124.48,47.16 C125.200004,45.2399904 126.215993,43.5360074 127.528,42.048 C128.840007,40.5599926 130.431991,39.3600046 132.304,38.448 C134.176009,37.5359954 136.247989,37.08 138.52,37.08 C139.640006,37.08 140.679995,37.2399984 141.64,37.56 C142.600005,37.8800016 143.439996,38.343997 144.16,38.952 C144.880004,39.560003 145.439998,40.3039956 145.84,41.184 C146.240002,42.0640044 146.44,43.0639944 146.44,44.184 C146.44,45.976009 146.040004,47.4959938 145.24,48.744 C144.439996,49.9920062 143.328007,51.0079961 141.904,51.792 C140.479993,52.5760039 138.79201,53.1439982 136.84,53.496 C134.88799,53.8480018 132.760012,54.024 130.456,54.024 C130.680001,55.3680067 131.167996,56.3199972 131.92,56.88 C132.672004,57.4400028 133.863992,57.72 135.496,57.72 C136.520005,57.72 137.559995,57.6320009 138.616,57.456 C139.672005,57.2799991 140.663995,57.0160018 141.592,56.664 L142.12,62.28 C141.223996,62.6320018 140.080007,62.9519986 138.688,63.24 C137.295993,63.5280014 135.784008,63.672 134.152,63.672 C132.16799,63.672 130.496007,63.3920028 129.136,62.832 C127.775993,62.2719972 126.672004,61.5120048 125.824,60.552 C124.975996,59.5919952 124.360002,58.4720064 123.976,57.192 C123.591998,55.9119936 123.4,54.5520072 123.4,53.112 Z M137.368,42.744 C135.735992,42.744 134.304006,43.3279942 133.072,44.496 C131.839994,45.6640058 131.032002,47.2079904 130.648,49.128 C132.63201,49.0639997 134.231994,48.8960014 135.448,48.624 C136.664006,48.3519986 137.607997,48.0240019 138.28,47.64 C138.952003,47.2559981 139.399999,46.8400022 139.624,46.392 C139.848001,45.9439978 139.96,45.4960022 139.96,45.048 C139.96,43.5119923 139.096009,42.744 137.368,42.744 Z M148.84,53.112 C148.84,51.0639898 149.199996,49.0800096 149.92,47.16 C150.640004,45.2399904 151.655993,43.5360074 152.968,42.048 C154.280007,40.5599926 155.871991,39.3600046 157.744,38.448 C159.616009,37.5359954 161.687989,37.08 163.96,37.08 C165.080006,37.08 166.119995,37.2399984 167.08,37.56 C168.040005,37.8800016 168.879996,38.343997 169.6,38.952 C170.320004,39.560003 170.879998,40.3039956 171.28,41.184 C171.680002,42.0640044 171.88,43.0639944 171.88,44.184 C171.88,45.976009 171.480004,47.4959938 170.68,48.744 C169.879996,49.9920062 168.768007,51.0079961 167.344,51.792 C165.919993,52.5760039 164.23201,53.1439982 162.28,53.496 C160.32799,53.8480018 158.200012,54.024 155.896,54.024 C156.120001,55.3680067 156.607996,56.3199972 157.36,56.88 C158.112004,57.4400028 159.303992,57.72 160.936,57.72 C161.960005,57.72 162.999995,57.6320009 164.056,57.456 C165.112005,57.2799991 166.103995,57.0160018 167.032,56.664 L167.56,62.28 C166.663996,62.6320018 165.520007,62.9519986 164.128,63.24 C162.735993,63.5280014 161.224008,63.672 159.592,63.672 C157.60799,63.672 155.936007,63.3920028 154.576,62.832 C153.215993,62.2719972 152.112004,61.5120048 151.264,60.552 C150.415996,59.5919952 149.800002,58.4720064 149.416,57.192 C149.031998,55.9119936 148.84,54.5520072 148.84,53.112 Z M162.808,42.744 C161.175992,42.744 159.744006,43.3279942 158.512,44.496 C157.279994,45.6640058 156.472002,47.2079904 156.088,49.128 C158.07201,49.0639997 159.671994,48.8960014 160.888,48.624 C162.104006,48.3519986 163.047997,48.0240019 163.72,47.64 C164.392003,47.2559981 164.839999,46.8400022 165.064,46.392 C165.288001,45.9439978 165.4,45.4960022 165.4,45.048 C165.4,43.5119923 164.536009,42.744 162.808,42.744 Z M192.136,43.896 C191.495997,43.7359992 190.864003,43.5840007 190.24,43.44 C189.615997,43.2959993 188.696006,43.224 187.48,43.224 C187.031998,43.224 186.536003,43.2639996 185.992,43.344 C185.447997,43.4240004 185.000002,43.5119995 184.648,43.608 L179.992,63 L172.84,63 L178.6,39.096 C179.976007,38.6479978 181.519991,38.224002 183.232,37.824 C184.944009,37.423998 186.871989,37.224 189.016,37.224 C189.816004,37.224 190.703995,37.2959993 191.68,37.44 C192.656005,37.5840007 193.511996,37.8159984 194.248,38.136 L192.136,43.896 Z" id="beervpn" fill="#1A2220"></path>
                <path d="M253.048,38.904 C253.592003,38.7439992 254.191997,38.560001 254.848,38.352 C255.504003,38.143999 256.239996,37.9520009 257.056,37.776 C257.872004,37.5999991 258.783995,37.4560006 259.792,37.344 C260.800005,37.2319994 261.943994,37.176 263.224,37.176 C267.000019,37.176 269.591993,38.2639891 271,40.44 C272.408007,42.6160109 272.648005,45.5919811 271.72,49.368 L268.456,63 L261.304,63 L264.472,49.656 C264.664001,48.8239958 264.815999,48.0160039 264.928,47.232 C265.040001,46.4479961 265.032001,45.760003 264.904,45.168 C264.775999,44.575997 264.480002,44.0960018 264.016,43.728 C263.551998,43.3599982 262.840005,43.176 261.88,43.176 C260.951995,43.176 260.008005,43.271999 259.048,43.464 L254.392,63 L247.24,63 L253.048,38.904 Z" id="Path" fill="#FFC555"></path>
                <path d="M245.32,47.592 C245.32,49.9280117 244.936004,52.0639903 244.168,54 C243.399996,55.9360097 242.336007,57.607993 240.976,59.016 C239.615993,60.424007 237.98401,61.5199961 236.08,62.304 C234.17599,63.0880039 232.104011,63.48 229.864,63.48 C228.775995,63.48 227.688005,63.384001 226.6,63.192 L224.44,71.88 L217.336,71.88 L225.304,38.664 C226.584006,38.2799981 228.047992,37.9360015 229.696,37.632 C231.344008,37.3279985 233.12799,37.176 235.048,37.176 C236.840009,37.176 238.383994,37.4479973 239.68,37.992 C240.976006,38.5360027 242.039996,39.2799953 242.872,40.224 C243.704004,41.1680047 244.319998,42.2719937 244.72,43.536 C245.120002,44.8000063 245.32,46.1519928 245.32,47.592 Z M227.896,57.432 C228.440003,57.5600006 229.111996,57.624 229.912,57.624 C231.160006,57.624 232.295995,57.3920023 233.32,56.928 C234.344005,56.4639977 235.215996,55.8160042 235.936,54.984 C236.656004,54.1519958 237.215998,53.1520058 237.616,51.984 C238.016002,50.8159942 238.216,49.528007 238.216,48.12 C238.216,46.7439931 237.912003,45.5760048 237.304,44.616 C236.695997,43.6559952 235.640008,43.176 234.136,43.176 C233.111995,43.176 232.152004,43.271999 231.256,43.464 L227.896,57.432 Z" id="Path" fill="#FFC555"></path>
                <path d="M199.576,63 C198.743996,59.799984 197.992003,56.0640214 197.32,51.792 C196.647997,47.5199786 196.184001,42.8400254 195.928,37.752 L203.32,37.752 C203.352,39.0000062 203.4,40.3679926 203.464,41.856 C203.528,43.3440074 203.608,44.8399925 203.704,46.344 C203.8,47.8480075 203.911999,49.3119929 204.04,50.736 C204.168001,52.1600071 204.311999,53.4479942 204.472,54.6 C205.176004,53.6399952 205.967996,52.456007 206.848,51.048 C207.728004,49.639993 208.583996,48.1680077 209.416,46.632 C210.248004,45.0959923 211.015996,43.5520078 211.72,42 C212.424004,40.4479922 212.967998,39.0320064 213.352,37.752 L220.936,37.752 C220.103996,40.0240114 219.072006,42.359988 217.84,44.76 C216.607994,47.160012 215.288007,49.4799888 213.88,51.72 C212.471993,53.9600112 211.040007,56.0559902 209.584,58.008 C208.127993,59.9600098 206.776006,61.6239931 205.528,63 L199.576,63 Z" id="Path" fill="#FFC555"></path>
                <g id="Icon-1">
                    <path d="M70.6882591,24.7773279 C68.6234818,22.8340081 65.8299595,21.9838057 62.3076923,22.2267206 C61.9433198,22.2267206 61.4574899,22.3481781 61.0931174,22.3481781 C61.8218623,21.1336032 62.3076923,19.5546559 62.3076923,17.9757085 C62.3076923,13.7246964 59.1497976,10.2024291 55.1417004,10.0809717 C55.0202429,6.31578947 52.2267206,3.40080972 48.7044534,3.40080972 C47.3684211,3.40080972 46.1538462,3.88663968 45.0607287,4.61538462 C43.1174089,1.70040486 40.0809717,0 36.6801619,0 C33.2793522,0 30.242915,1.82186235 28.2995951,4.73684211 C27.4493927,4.25101215 26.5991903,4.00809717 25.6275304,4.00809717 C24.048583,4.00809717 22.5910931,4.73684211 21.4979757,5.82995951 C20.1619433,3.76518219 17.9757085,2.55060729 15.5465587,2.55060729 C12.0242915,2.55060729 8.98785425,5.22267206 8.3805668,8.86639676 C3.76518219,8.86639676 0,12.9959514 0,17.9757085 C0,21.9838057 2.30769231,25.2631579 5.70850202,26.4777328 L4.61538462,80.7692308 C4.8582996,85.2631579 16.3967611,90 30.48583,90 C44.6963563,90 56.3562753,85.1417004 56.3562753,80.6477733 L56.3562753,79.9190283 L56.2348178,74.6963563 C66.5587045,73.9676113 75.0607287,62.3076923 75.4251012,48.582996 C75.7894737,35.465587 74.4534413,28.2995951 70.6882591,24.7773279 Z M9.47368421,26.9635628 C9.71659919,26.9635628 9.83805668,26.9635628 10.0809717,26.8421053 C11.1740891,27.3279352 12.388664,27.6923077 13.7246964,28.0566802 C13.9676113,28.2995951 14.2105263,28.6639676 14.4534413,28.9068826 L14.4534413,37.6518219 C12.388664,36.9230769 10.6882591,36.0728745 9.35222672,35.1012146 L9.47368421,26.9635628 Z M51.8623482,35.3441296 C50.2834008,36.5587045 47.1214575,37.7611336 45.0607287,38.3805668 C43.6869096,38.7935223 41.4601889,39.1983806 38.3805668,39.5951417 C35.951417,39.9595142 33.4008097,40.0809717 30.7287449,40.0809717 C28.2995951,40.0809717 25.9919028,39.9595142 23.805668,39.5951417 C23.3198381,38.8663968 22.5910931,38.2591093 21.8623482,37.7732794 L21.8623482,31.4574899 C23.562753,31.3360324 25.2631579,30.7287449 26.5991903,29.6356275 C27.0850202,29.6356275 27.5708502,29.6356275 28.0566802,29.6356275 C29.51417,30.9716599 31.3360324,31.7004049 33.1578947,31.7004049 C35.2226721,31.7004049 37.1659919,30.8502024 38.6234818,29.2712551 C39.2307692,29.2712551 39.7165992,29.1497976 40.3238866,29.0283401 C41.659919,29.757085 42.9959514,30.242915 44.5748988,30.242915 C47.4898785,30.7287449 50.0404858,29.1497976 51.7408907,26.7206478 C51.7408907,26.7206478 51.7813765,29.5951417 51.8623482,35.3441296 Z M55.6275304,36.9230769 C56.3562753,37.0445344 57.0850202,36.6801619 57.4493927,36.0728745 C58.9068826,33.6437247 60.7287449,32.3076923 62.5506073,32.1862348 C63.1578947,32.1862348 63.5222672,32.3076923 63.7651822,32.5506073 C65.708502,34.3724696 65.708502,41.5384615 65.708502,47.7327935 L65.708502,49.5546559 C65.708502,58.4210526 60.6072874,65.708502 56.2348178,65.951417 C56.2348178,65.951417 56.2348178,65.951417 56.1133603,65.951417 L55.6275304,36.9230769 Z M52.8340081,80.5263158 C51.8623482,82.3481781 43.4817814,86.4777328 30.6072874,86.4777328 C17.854251,86.4777328 9.47368421,82.4696356 8.3805668,80.6477733 L8.50202429,73.8461538 C11.902834,77.0040486 20.5263158,79.5546559 30.7287449,79.5546559 C40.5668016,79.5546559 49.0688259,77.0040486 52.7125506,73.9676113 L52.8340081,80.0404858 L52.8340081,80.5263158 L52.8340081,80.5263158 Z" id="Path" fill="#1A2220"></path>
                    <path d="M9.34999847,35 L8.5,74 C12.8333333,78 19.6666667,80 29,80 C43,80 52.6999969,75 52.6999969,74 C52.6999969,73.3333333 52.4166667,60.4666672 51.8500061,35.4000015 C44.6166687,38.4666672 38,40 32,40 C23,40 17.3499985,39 9.34999847,35 Z" id="Path-2" fill="#FFC555"></path>
                    <g id="Path">
                        <use fill="#FBFBFB" fill-rule="evenodd" xlink:href="#path-1"></use>
                        <path stroke="#1A2220" stroke-width="3.3" d="M21.2046559,31.185722 L21.2046559,38.7441438 C23.0426797,39.5162547 24.2410931,41.2735641 24.2410931,43.2388664 C24.2410931,45.919095 20.9798639,48.1682186 18.097166,48.1682186 C15.2144681,48.1682186 11.9532389,45.919095 11.9532389,43.2388664 C11.9532389,41.1045531 13.3275352,39.1963976 15.3540486,38.5586849 L15.3540486,28.6316974 C14.268675,27.6205005 13.4273854,26.4218891 12.8731354,25.0644826 C11.7062355,25.9019476 10.3015859,26.3058704 8.74493927,26.3058704 C4.3253127,26.3058704 0.900607287,22.5527686 0.900607287,17.9757085 C0.900607287,13.4488335 4.27602442,9.64554656 8.50202429,9.64554656 C8.75283291,9.64554656 8.89501467,9.64928818 9.09130664,9.66891738 C9.12969995,9.67275671 9.16773526,9.67708007 9.20544633,9.68194078 C9.6037933,6.16666097 12.2733466,3.45121457 15.6680162,3.45121457 C18.1628533,3.45121457 20.3412225,4.97737277 21.4618958,7.35807158 C22.3465016,5.78674176 23.9296936,4.78724696 25.7489879,4.78724696 C26.8669841,4.78724696 27.8362058,5.18057636 28.6460687,5.83217046 C30.331235,2.74592366 33.432554,0.779149798 36.8016194,0.779149798 C40.1745323,0.779149798 43.2470124,2.74408032 44.9270546,5.87899817 C45.9535066,4.80600375 47.3385304,4.17995951 48.8259109,4.17995951 C51.9627879,4.17995951 54.4840081,7.01633224 54.4840081,10.3238866 C54.4840081,10.5719018 54.4803494,10.7136964 54.4612873,10.9066302 C54.6443087,10.8757771 54.8164396,10.8601215 55.0202429,10.8601215 C58.7761873,10.8601215 61.65,14.074895 61.65,18.097166 C61.65,22.0354462 58.745118,25.3342105 55.0202429,25.3342105 C53.9770921,25.3342105 52.9798179,25.0673043 52.0667117,24.5379212 C50.8916119,27.8720664 48.0598705,30.0710526 44.6963563,30.0710526 C42.6837494,30.0710526 40.8307896,29.2743624 39.382299,27.7878475 C38.0933111,30.1192329 35.8362471,31.5285425 33.2793522,31.5285425 C31.0417933,31.5285425 28.9487998,30.3232281 27.5504306,28.3813305 C25.9646652,30.010498 23.8077014,31.0230317 21.6008999,31.1609568 L21.2046559,31.185722 Z"></path>
                    </g>
                    <rect id="Rectangle" fill="#1A2220" transform="translate(42.500000, 48.500000) rotate(-1.000000) translate(-42.500000, -48.500000) " x="40" y="36" width="5" height="25" rx="2.5"></rect>
                    <path d="M71.7813765,48.4615385 C71.417004,60.1214575 64.3724696,70.4453441 56.2348178,71.0526316 L56.2348178,69.5951417 C56.2348178,69.5951417 56.3562753,69.5951417 56.3562753,69.5951417 C56.3562753,69.5951417 56.4777328,69.5951417 56.4777328,69.5951417 C63.2793522,69.1093117 69.3522267,59.757085 69.3522267,49.5546559 L69.3522267,47.7327935 C69.3522267,39.7165992 69.3522267,32.7935223 66.194332,29.8785425 C65.1012146,28.9068826 63.7651822,28.4210526 62.3076923,28.5425101 C59.757085,28.6639676 57.4493927,30.1214575 55.5060729,32.5506073 L55.3846154,28.6639676 C55.7489879,28.6639676 56.1133603,28.5425101 56.4777328,28.2995951 C58.4210526,26.8421053 60.3643725,25.9919028 62.5506073,25.8704453 C65.1012146,25.6275304 66.9230769,26.2348178 68.2591093,27.4493927 C71.0526316,30.1214575 72.145749,36.6801619 71.7813765,48.4615385 Z" id="Path" fill="#FBFBFB"></path>
                </g>
            </g>
        </g>
    </g>
</svg>