<?xml version="1.0" encoding="UTF-8"?>
<svg width="270px" height="91px" viewBox="0 0 270 91" version="1.1" xmlns="http://www.w3.org/2000/svg" xmlns:xlink="http://www.w3.org/1999/xlink">
    <!-- Generator: Sketch 47.1 (45422) - http://www.bohemiancoding.com/sketch -->
    <title>Logo</title>
    <desc>Created with Sketch.</desc>
    <defs>
        <path d="M2.55060729,17.9757085 C2.55060729,14.3319838 5.22267206,11.2955466 8.50202429,11.2955466 C8.74493927,11.2955466 9.10931174,11.2955466 9.35222672,11.417004 C9.71659919,11.417004 10.0809717,11.417004 10.3238866,11.1740891 C10.5668016,10.9311741 10.8097166,10.5668016 10.8097166,10.3238866 C10.9311741,7.40890688 12.9959514,5.10121457 15.6680162,5.10121457 C17.7327935,5.10121457 19.5546559,6.55870445 20.2834008,8.86639676 C20.4048583,9.35222672 20.8906883,9.71659919 21.3765182,9.71659919 C21.8623482,9.71659919 22.3481781,9.35222672 22.5910931,8.86639676 C23.0769231,7.40890688 24.291498,6.43724696 25.7489879,6.43724696 C26.7206478,6.43724696 27.4493927,6.92307692 27.9352227,7.40890688 C28.1781377,7.65182186 28.6639676,7.77327935 29.0283401,7.77327935 C29.3927126,7.65182186 29.757085,7.40890688 29.8785425,7.04453441 C31.2145749,4.25101215 33.8866397,2.4291498 36.8016194,2.4291498 C39.7165992,2.4291498 42.388664,4.25101215 43.7246964,7.1659919 C43.8461538,7.53036437 44.2105263,7.77327935 44.6963563,7.89473684 C45.0607287,7.89473684 45.5465587,7.77327935 45.7894737,7.40890688 C46.5182186,6.43724696 47.611336,5.82995951 48.8259109,5.82995951 C51.0121457,5.82995951 52.8340081,7.89473684 52.8340081,10.3238866 C52.8340081,10.5668016 52.8340081,10.9311741 52.7125506,11.1740891 C52.5910931,11.5384615 52.7125506,12.0242915 53.0769231,12.2672065 C53.3198381,12.5101215 53.805668,12.6315789 54.1700405,12.6315789 C54.4129555,12.6315789 54.6558704,12.5101215 55.0202429,12.5101215 C57.8137652,12.5101215 60,14.9392713 60,18.097166 C60,21.1336032 57.8137652,23.6842105 55.0202429,23.6842105 C54.1700405,23.6842105 53.3198381,23.4412955 52.4696356,22.8340081 C52.1052632,22.5910931 51.7408907,22.5910931 51.3765182,22.7125506 C51.0121457,22.8340081 50.7692308,23.1983806 50.6477733,23.562753 C49.7975709,26.4777328 47.4898785,28.4210526 44.6963563,28.4210526 C42.9959514,28.4210526 41.417004,27.6923077 40.2024291,26.2348178 C39.9595142,25.8704453 39.4736842,25.7489879 39.1093117,25.8704453 C38.7449393,25.8704453 38.3805668,26.2348178 38.1376518,26.5991903 C37.1659919,28.6639676 35.3441296,29.8785425 33.2793522,29.8785425 C31.4574899,29.8785425 29.757085,28.7854251 28.6639676,27.0850202 C28.4210526,26.7206478 28.0566802,26.4777328 27.6923077,26.4777328 C27.3279352,26.4777328 26.9635628,26.5991903 26.7206478,26.8421053 C25.3846154,28.4210526 23.4412955,29.3927126 21.4979757,29.51417 C21.2550607,29.3927126 21.1336032,29.3927126 21.0121457,29.3927126 C20.6477733,29.2712551 20.2834008,29.3927126 20.0404858,29.6356275 C19.7975709,29.8785425 19.5546559,30.242915 19.5546559,30.6072874 L19.5546559,39.1093117 C19.5546559,39.5951417 19.9190283,40.0809717 20.4048583,40.2024291 C21.7408907,40.6882591 22.5910931,41.902834 22.5910931,43.2388664 C22.5910931,44.9392713 20.0404858,46.5182186 18.097166,46.5182186 C16.1538462,46.5182186 13.6032389,44.9392713 13.6032389,43.2388664 C13.6032389,41.7813765 14.5748988,40.4453441 16.0323887,40.0809717 C16.5182186,39.9595142 17.0040486,39.4736842 17.0040486,38.8663968 L17.0040486,28.4210526 C17.0040486,28.0566802 16.8825911,27.6923077 16.6396761,27.5708502 C15.5465587,26.5991903 14.6963563,25.3846154 14.2105263,23.9271255 C14.0890688,23.562753 13.7246964,23.3198381 13.3603239,23.1983806 C13.2388664,23.1983806 13.1174089,23.1983806 12.9959514,23.1983806 C12.7530364,23.1983806 12.5101215,23.3198381 12.2672065,23.4412955 C11.2955466,24.291498 10.0809717,24.6558704 8.74493927,24.6558704 C5.22267206,24.6558704 2.55060729,21.6194332 2.55060729,17.9757085 Z" id="path-1"></path>
    </defs>
    <g id="Page-1" stroke="none" stroke-width="1" fill="none" fill-rule="evenodd">
        <g id="Logo-Horizontal" transform="translate(-113.000000, -79.000000)">
            <g id="Logo" transform="translate(114.000000, 80.000000)">
                <g id="Icon">
                    <path d="M70.6882591,24.7773279 C68.6234818,22.8340081 65.8299595,21.9838057 62.3076923,22.2267206 C61.9433198,22.2267206 61.4574899,22.3481781 61.0931174,22.3481781 C61.8218623,21.1336032 62.3076923,19.5546559 62.3076923,17.9757085 C62.3076923,13.7246964 59.1497976,10.2024291 55.1417004,10.0809717 C55.0202429,6.31578947 52.2267206,3.40080972 48.7044534,3.40080972 C47.3684211,3.40080972 46.1538462,3.88663968 45.0607287,4.61538462 C43.1174089,1.70040486 40.0809717,0 36.6801619,0 C33.2793522,0 30.242915,1.82186235 28.2995951,4.73684211 C27.4493927,4.25101215 26.5991903,4.00809717 25.6275304,4.00809717 C24.048583,4.00809717 22.5910931,4.73684211 21.4979757,5.82995951 C20.1619433,3.76518219 17.9757085,2.55060729 15.5465587,2.55060729 C12.0242915,2.55060729 8.98785425,5.22267206 8.3805668,8.86639676 C3.76518219,8.86639676 0,12.9959514 0,17.9757085 C0,21.9838057 2.30769231,25.2631579 5.70850202,26.4777328 L4.61538462,80.7692308 C4.8582996,85.2631579 16.3967611,90 30.48583,90 C44.6963563,90 56.3562753,85.1417004 56.3562753,80.6477733 L56.3562753,79.9190283 L56.2348178,74.6963563 C66.5587045,73.9676113 75.0607287,62.3076923 75.4251012,48.582996 C75.7894737,35.465587 74.4534413,28.2995951 70.6882591,24.7773279 Z" id="Path" fill="#FBFBFB"></path>
                    <path d="M9.34999847,35 L8.5,74 C12.8333333,78 19.6666667,80 29,80 C43,80 52.6999969,75 52.6999969,74 C52.6999969,73.3333333 52.4166667,60.4666672 51.8500061,35.4000015 C44.6166687,38.4666672 38,40 32,40 C23,40 17.3499985,39 9.34999847,35 Z" id="Path-2" fill="#FFC555"></path>
                    <path d="M51.8623482,35.3441296 C50.2834008,36.5587045 47.1214575,37.7611336 45.0607287,38.3805668 C43.6869096,38.7935223 41.4601889,39.1983806 38.3805668,39.5951417 C35.951417,39.9595142 33.4008097,40.0809717 30.7287449,40.0809717 C28.2995951,40.0809717 25.9919028,39.9595142 23.805668,39.5951417 C23.3198381,38.8663968 22.5910931,38.2591093 21.8623482,37.7732794 L21.8623482,31.4574899 C23.562753,31.3360324 25.2631579,30.7287449 26.5991903,29.6356275 C27.0850202,29.6356275 27.5708502,29.6356275 28.0566802,29.6356275 C29.51417,30.9716599 31.3360324,31.7004049 33.1578947,31.7004049 C35.2226721,31.7004049 37.1659919,30.8502024 38.6234818,29.2712551 C39.2307692,29.2712551 39.7165992,29.1497976 40.3238866,29.0283401 C41.659919,29.757085 42.9959514,30.242915 44.5748988,30.242915 C47.4898785,30.7287449 50.0404858,29.1497976 51.7408907,26.7206478 C51.7408907,26.7206478 51.7813765,29.5951417 51.8623482,35.3441296 Z" id="Path" fill="#1A2220"></path>
                    <path d="M9.47368421,26.9635628 C9.71659919,26.9635628 9.83805668,26.9635628 10.0809717,26.8421053 C11.1740891,27.3279352 12.388664,27.6923077 13.7246964,28.0566802 C13.9676113,28.2995951 14.2105263,28.6639676 14.4534413,28.9068826 L14.4534413,37.6518219 C12.388664,36.9230769 10.6882591,36.0728745 9.35222672,35.1012146 L9.47368421,26.9635628 Z" id="Path" fill="#1A2220"></path>
                    <g id="Path">
                        <use fill="#1A2220" fill-rule="evenodd" xlink:href="#path-1"></use>
                        <path stroke="#FFFFFF" stroke-width="3" d="M15.5040486,28.5661651 C14.3631372,27.5160625 13.4920954,26.2589465 12.9405666,24.8277338 C11.7706705,25.7239684 10.3412092,26.1558704 8.74493927,26.1558704 C4.41137647,26.1558704 1.05060729,22.4728357 1.05060729,17.9757085 C1.05060729,13.5279535 4.36311845,9.79554656 8.50202429,9.79554656 C8.74797471,9.79554656 8.88659649,9.7991945 9.07638108,9.81817296 C9.16572916,9.82710777 9.25294544,9.83876932 9.33847483,9.85387199 C9.66669074,6.33559653 12.3046183,3.60121457 15.6680162,3.60121457 C18.1786794,3.60121457 20.3635312,5.18731734 21.4457676,7.71142525 C22.2687428,6.02517 23.88076,4.93724696 25.7489879,4.93724696 C26.8940737,4.93724696 27.8787337,5.36446946 28.6915319,6.0652958 C30.3301776,2.93317741 33.4309933,0.929149798 36.8016194,0.929149798 C40.1840407,0.929149798 43.2614983,2.94067848 44.8928992,6.13731765 C45.9042985,4.99878129 47.3108082,4.32995951 48.8259109,4.32995951 C51.8757525,4.32995951 54.3340081,7.0954971 54.3340081,10.3238866 C54.3340081,10.5698371 54.3303602,10.7084588 54.3113817,10.8982434 C54.3047815,10.9642449 54.2966935,11.0290832 54.2868295,11.0929375 C54.5452916,11.0379466 54.754969,11.0101215 55.0202429,11.0101215 C58.6893636,11.0101215 61.5,14.1542232 61.5,18.097166 C61.5,21.9565483 58.6577303,25.1842105 55.0202429,25.1842105 C53.9445685,25.1842105 52.9195719,24.8932648 51.9848175,24.3136752 C50.8682909,27.6878582 48.0514454,29.9210526 44.6963563,29.9210526 C42.6586781,29.9210526 40.7888283,29.0879071 39.348156,27.5342205 C38.1030004,29.927179 35.8453724,31.3785425 33.2793522,31.3785425 C31.0376304,31.3785425 28.9399862,30.1378197 27.5679909,28.1456434 C25.9974104,29.825034 23.8193598,30.8720104 21.5915431,31.0112489 L21.1884217,31.036444 L21.0546559,30.9695611 L21.0546559,38.8448962 C22.8895558,39.5733185 24.0910931,41.3021758 24.0910931,43.2388664 C24.0910931,45.8218341 20.9063356,48.0182186 18.097166,48.0182186 C15.2879964,48.0182186 12.1032389,45.8218341 12.1032389,43.2388664 C12.1032389,41.1328681 13.4831277,39.2542531 15.5040486,38.6700871 L15.5040486,28.5661651 Z"></path>
                    </g>
                    <rect id="Rectangle" fill="#FBFBFB" transform="translate(42.500000, 48.500000) rotate(-1.000000) translate(-42.500000, -48.500000) " x="40" y="36" width="5" height="25" rx="2.5"></rect>
                    <path d="M52.8340081,80.5263158 C51.8623482,82.3481781 43.4817814,86.4777328 30.6072874,86.4777328 C17.854251,86.4777328 9.47368421,82.4696356 8.3805668,80.6477733 L8.50202429,73.8461538 C11.902834,77.0040486 20.5263158,79.5546559 30.7287449,79.5546559 C40.5668016,79.5546559 49.0688259,77.0040486 52.7125506,73.9676113 L52.8340081,80.0404858 L52.8340081,80.5263158 L52.8340081,80.5263158 Z" id="Path" fill="#1A2220"></path>
                    <path d="M55.6275304,36.9230769 C56.3562753,37.0445344 57.0850202,36.6801619 57.4493927,36.0728745 C58.9068826,33.6437247 60.7287449,32.3076923 62.5506073,32.1862348 C63.1578947,32.1862348 63.5222672,32.3076923 63.7651822,32.5506073 C65.708502,34.3724696 65.708502,41.5384615 65.708502,47.7327935 L65.708502,49.5546559 C65.708502,58.4210526 60.6072874,65.708502 56.2348178,65.951417 C56.2348178,65.951417 56.2348178,65.951417 56.1133603,65.951417 L55.6275304,36.9230769 Z" id="Path" fill="#1A2220"></path>
                    <path d="M71.7813765,48.4615385 C71.417004,60.1214575 64.3724696,70.4453441 56.2348178,71.0526316 L56.2348178,69.5951417 C56.2348178,69.5951417 56.3562753,69.5951417 56.3562753,69.5951417 C56.3562753,69.5951417 56.4777328,69.5951417 56.4777328,69.5951417 C63.2793522,69.1093117 69.3522267,59.757085 69.3522267,49.5546559 L69.3522267,47.7327935 C69.3522267,39.7165992 69.3522267,32.7935223 66.194332,29.8785425 C65.1012146,28.9068826 63.7651822,28.4210526 62.3076923,28.5425101 C59.757085,28.6639676 57.4493927,30.1214575 55.5060729,32.5506073 L55.3846154,28.6639676 C55.7489879,28.6639676 56.1133603,28.5425101 56.4777328,28.2995951 C58.4210526,26.8421053 60.3643725,25.9919028 62.5506073,25.8704453 C65.1012146,25.6275304 66.9230769,26.2348178 68.2591093,27.4493927 C71.0526316,30.1214575 72.145749,36.6801619 71.7813765,48.4615385 Z" id="Path" fill="#1A2220"></path>
                </g>
                <path d="M107.752,37.472 C109.288008,37.472 110.615994,37.7439973 111.736,38.288 C112.856006,38.8320027 113.783996,39.5679954 114.52,40.496 C115.256004,41.4240046 115.799998,42.5119938 116.152,43.76 C116.504002,45.0080062 116.68,46.3519928 116.68,47.792 C116.68,50.000011 116.272004,52.0879902 115.456,54.056 C114.639996,56.0240098 113.528007,57.7359927 112.12,59.192 C110.711993,60.6480073 109.04801,61.7999958 107.128,62.648 C105.20799,63.4960042 103.128011,63.92 100.888,63.92 C100.599999,63.92 100.096004,63.9120001 99.376,63.896 C98.6559964,63.8799999 97.8320046,63.8080006 96.904,63.68 C95.9759954,63.5519994 94.9920052,63.3600013 93.952,63.104 C92.9119948,62.8479987 91.9280046,62.4960022 91,62.048 L99.304,27.152 L106.744,26 L103.768,38.384 C104.408003,38.0959986 105.047997,37.8720008 105.688,37.712 C106.328003,37.5519992 107.015996,37.472 107.752,37.472 Z M101.512,58.016 C102.632006,58.016 103.687995,57.7440027 104.68,57.2 C105.672005,56.6559973 106.527996,55.9280046 107.248,55.016 C107.968004,54.1039954 108.535998,53.0720058 108.952,51.92 C109.368002,50.7679942 109.576,49.5680062 109.576,48.32 C109.576,46.7839923 109.320003,45.5840043 108.808,44.72 C108.295997,43.8559957 107.352007,43.424 105.976,43.424 C105.527998,43.424 104.944004,43.5039992 104.224,43.664 C103.503996,43.8240008 102.856003,44.1599974 102.28,44.672 L99.112,57.824 C99.304001,57.8560002 99.4719993,57.8879998 99.616,57.92 C99.7600007,57.9520002 99.9119992,57.9759999 100.072,57.992 C100.232001,58.0080001 100.423999,58.016 100.648,58.016 L101.512,58.016 Z M120.04,53.36 C120.04,51.3119898 120.399996,49.3280096 121.12,47.408 C121.840004,45.4879904 122.855993,43.7840074 124.168,42.296 C125.480007,40.8079926 127.071991,39.6080046 128.944,38.696 C130.816009,37.7839954 132.887989,37.328 135.16,37.328 C136.280006,37.328 137.319995,37.4879984 138.28,37.808 C139.240005,38.1280016 140.079996,38.591997 140.8,39.2 C141.520004,39.808003 142.079998,40.5519956 142.48,41.432 C142.880002,42.3120044 143.08,43.3119944 143.08,44.432 C143.08,46.224009 142.680004,47.7439938 141.88,48.992 C141.079996,50.2400062 139.968007,51.2559961 138.544,52.04 C137.119993,52.8240039 135.43201,53.3919982 133.48,53.744 C131.52799,54.0960018 129.400012,54.272 127.096,54.272 C127.320001,55.6160067 127.807996,56.5679972 128.56,57.128 C129.312004,57.6880028 130.503992,57.968 132.136,57.968 C133.160005,57.968 134.199995,57.8800009 135.256,57.704 C136.312005,57.5279991 137.303995,57.2640018 138.232,56.912 L138.76,62.528 C137.863996,62.8800018 136.720007,63.1999986 135.328,63.488 C133.935993,63.7760014 132.424008,63.92 130.792,63.92 C128.80799,63.92 127.136007,63.6400028 125.776,63.08 C124.415993,62.5199972 123.312004,61.7600048 122.464,60.8 C121.615996,59.8399952 121.000002,58.7200064 120.616,57.44 C120.231998,56.1599936 120.04,54.8000072 120.04,53.36 Z M134.008,42.992 C132.375992,42.992 130.944006,43.5759942 129.712,44.744 C128.479994,45.9120058 127.672002,47.4559904 127.288,49.376 C129.27201,49.3119997 130.871994,49.1440014 132.088,48.872 C133.304006,48.5999986 134.247997,48.2720019 134.92,47.888 C135.592003,47.5039981 136.039999,47.0880022 136.264,46.64 C136.488001,46.1919978 136.6,45.7440022 136.6,45.296 C136.6,43.7599923 135.736009,42.992 134.008,42.992 Z M145.48,53.36 C145.48,51.3119898 145.839996,49.3280096 146.56,47.408 C147.280004,45.4879904 148.295993,43.7840074 149.608,42.296 C150.920007,40.8079926 152.511991,39.6080046 154.384,38.696 C156.256009,37.7839954 158.327989,37.328 160.6,37.328 C161.720006,37.328 162.759995,37.4879984 163.72,37.808 C164.680005,38.1280016 165.519996,38.591997 166.24,39.2 C166.960004,39.808003 167.519998,40.5519956 167.92,41.432 C168.320002,42.3120044 168.52,43.3119944 168.52,44.432 C168.52,46.224009 168.120004,47.7439938 167.32,48.992 C166.519996,50.2400062 165.408007,51.2559961 163.984,52.04 C162.559993,52.8240039 160.87201,53.3919982 158.92,53.744 C156.96799,54.0960018 154.840012,54.272 152.536,54.272 C152.760001,55.6160067 153.247996,56.5679972 154,57.128 C154.752004,57.6880028 155.943992,57.968 157.576,57.968 C158.600005,57.968 159.639995,57.8800009 160.696,57.704 C161.752005,57.5279991 162.743995,57.2640018 163.672,56.912 L164.2,62.528 C163.303996,62.8800018 162.160007,63.1999986 160.768,63.488 C159.375993,63.7760014 157.864008,63.92 156.232,63.92 C154.24799,63.92 152.576007,63.6400028 151.216,63.08 C149.855993,62.5199972 148.752004,61.7600048 147.904,60.8 C147.055996,59.8399952 146.440002,58.7200064 146.056,57.44 C145.671998,56.1599936 145.48,54.8000072 145.48,53.36 Z M159.448,42.992 C157.815992,42.992 156.384006,43.5759942 155.152,44.744 C153.919994,45.9120058 153.112002,47.4559904 152.728,49.376 C154.71201,49.3119997 156.311994,49.1440014 157.528,48.872 C158.744006,48.5999986 159.687997,48.2720019 160.36,47.888 C161.032003,47.5039981 161.479999,47.0880022 161.704,46.64 C161.928001,46.1919978 162.04,45.7440022 162.04,45.296 C162.04,43.7599923 161.176009,42.992 159.448,42.992 Z M188.776,44.144 C188.135997,43.9839992 187.504003,43.8320007 186.88,43.688 C186.255997,43.5439993 185.336006,43.472 184.12,43.472 C183.671998,43.472 183.176003,43.5119996 182.632,43.592 C182.087997,43.6720004 181.640002,43.7599995 181.288,43.856 L176.632,63.248 L169.48,63.248 L175.24,39.344 C176.616007,38.8959978 178.159991,38.472002 179.872,38.072 C181.584009,37.671998 183.511989,37.472 185.656,37.472 C186.456004,37.472 187.343995,37.5439993 188.32,37.688 C189.296005,37.8320007 190.151996,38.0639984 190.888,38.384 L188.776,44.144 Z" id="beervpn" fill="#FBFBFB"></path>
                <path d="M249.808,39.728 C250.352003,39.5679992 250.951997,39.384001 251.608,39.176 C252.264003,38.967999 252.999996,38.7760009 253.816,38.6 C254.632004,38.4239991 255.543995,38.2800006 256.552,38.168 C257.560005,38.0559994 258.703994,38 259.984,38 C263.760019,38 266.351993,39.0879891 267.76,41.264 C269.168007,43.4400109 269.408005,46.4159811 268.48,50.192 L265.216,63.824 L258.064,63.824 L261.232,50.48 C261.424001,49.6479958 261.575999,48.8400039 261.688,48.056 C261.800001,47.2719961 261.792001,46.584003 261.664,45.992 C261.535999,45.399997 261.240002,44.9200018 260.776,44.552 C260.311998,44.1839982 259.600005,44 258.64,44 C257.711995,44 256.768005,44.095999 255.808,44.288 L251.152,63.824 L244,63.824 L249.808,39.728 Z" id="Path" fill="#FFC555"></path>
                <path d="M241.984,48.416 C241.984,50.7520117 241.600004,52.8879903 240.832,54.824 C240.063996,56.7600097 239.000007,58.431993 237.64,59.84 C236.279993,61.248007 234.64801,62.3439961 232.744,63.128 C230.83999,63.9120039 228.768011,64.304 226.528,64.304 C225.439995,64.304 224.352005,64.208001 223.264,64.016 L221.104,72.704 L214,72.704 L221.968,39.488 C223.248006,39.1039981 224.711992,38.7600015 226.36,38.456 C228.008008,38.1519985 229.79199,38 231.712,38 C233.504009,38 235.047994,38.2719973 236.344,38.816 C237.640006,39.3600027 238.703996,40.1039953 239.536,41.048 C240.368004,41.9920047 240.983998,43.0959937 241.384,44.36 C241.784002,45.6240063 241.984,46.9759928 241.984,48.416 Z M224.56,58.256 C225.104003,58.3840006 225.775996,58.448 226.576,58.448 C227.824006,58.448 228.959995,58.2160023 229.984,57.752 C231.008005,57.2879977 231.879996,56.6400042 232.6,55.808 C233.320004,54.9759958 233.879998,53.9760058 234.28,52.808 C234.680002,51.6399942 234.88,50.352007 234.88,48.944 C234.88,47.5679931 234.576003,46.4000048 233.968,45.44 C233.359997,44.4799952 232.304008,44 230.8,44 C229.775995,44 228.816004,44.095999 227.92,44.288 L224.56,58.256 Z" id="Path" fill="#FFC555"></path>
                <path d="M196.648,63.248 C195.815996,60.047984 195.064003,56.3120214 194.392,52.04 C193.719997,47.7679786 193.256001,43.0880254 193,38 L200.392,38 C200.424,39.2480062 200.472,40.6159926 200.536,42.104 C200.6,43.5920074 200.68,45.0879925 200.776,46.592 C200.872,48.0960075 200.983999,49.5599929 201.112,50.984 C201.240001,52.4080071 201.383999,53.6959942 201.544,54.848 C202.248004,53.8879952 203.039996,52.704007 203.92,51.296 C204.800004,49.887993 205.655996,48.4160077 206.488,46.88 C207.320004,45.3439923 208.087996,43.8000078 208.792,42.248 C209.496004,40.6959922 210.039998,39.2800064 210.424,38 L218.008,38 C217.175996,40.2720114 216.144006,42.607988 214.912,45.008 C213.679994,47.408012 212.360007,49.7279888 210.952,51.968 C209.543993,54.2080112 208.112007,56.3039902 206.656,58.256 C205.199993,60.2080098 203.848006,61.8719931 202.6,63.248 L196.648,63.248 Z" id="Path" fill="#FFC555"></path>
            </g>
        </g>
    </g>
</svg>