<?xml version="1.0" encoding="UTF-8"?>
<!DOCTYPE svg PUBLIC "-//W3C//DTD SVG 1.1//EN" "http://www.w3.org/Graphics/SVG/1.1/DTD/svg11.dtd">
<!-- Creator: CorelDRAW X7 -->
<svg xmlns="http://www.w3.org/2000/svg" xml:space="preserve" width="57.4572mm" height="8.7616mm" version="1.1" style="shape-rendering:geometricPrecision; text-rendering:geometricPrecision; image-rendering:optimizeQuality; fill-rule:evenodd; clip-rule:evenodd"
viewBox="0 0 972 148"
 xmlns:xlink="http://www.w3.org/1999/xlink">
 <defs>
  <style type="text/css">
   <![CDATA[
    .fil0 {fill:#696566}
   ]]>
  </style>
 </defs>
 <g id="Layer_x0020_1">
  <metadata id="CorelCorpID_0Corel-Layer"/>
  <g id="_1588531219040">
   <g>
    <path class="fil0" d="M270 19c-4,-5 -6,-9 -16,-14 -16,-7 -35,-7 -50,1 -6,3 -15,9 -18,13 -2,-2 -5,-5 -7,-7 -20,-18 -53,-16 -69,6 -10,14 -32,75 -35,79 -2,-2 -7,-14 -8,-18l-23 -53c-5,-12 -8,-26 -24,-26 -14,0 -24,14 -18,28l16 34c5,12 10,24 16,35 4,9 12,27 16,35 3,5 6,10 12,13 5,3 14,4 21,2 11,-3 17,-16 22,-28 5,-11 11,-23 16,-34 6,-12 11,-23 16,-35 2,-3 3,-6 4,-8 2,-4 3,-7 8,-6 7,2 5,15 5,22 0,16 0,33 0,50 0,16 -2,32 11,38 7,3 15,2 21,-1 12,-8 9,-26 9,-41 0,-9 0,-17 0,-26 0,-17 -3,-32 11,-39 10,-6 28,-3 32,13 1,6 0,41 0,50 0,16 -2,35 9,42 10,8 27,5 32,-10 2,-8 1,-60 1,-74 0,-30 34,-29 41,-12 3,7 2,58 2,73 0,9 1,15 5,20 7,9 26,11 34,-3 3,-7 3,-14 3,-23 0,-12 0,-68 -1,-75 -7,-42 -61,-54 -94,-21z"/>
    <path class="fil0" d="M476 37c5,11 13,36 17,48 6,16 12,32 17,49 1,5 2,7 6,10 3,3 8,4 12,2 7,-4 9,-14 11,-22l35 -95c3,-8 9,-18 1,-24 -3,-2 -9,-3 -12,0 -3,2 -5,7 -6,11 -6,16 -11,32 -17,48 0,1 -16,47 -17,49l-30 -87c-5,-12 -5,-23 -17,-23 -10,0 -11,11 -16,23 -3,10 -6,20 -10,29l-20 58 -9 -24c-2,-8 -5,-16 -8,-24 -6,-16 -11,-33 -17,-49 -1,-4 -2,-8 -5,-11 -3,-2 -8,-3 -12,-1 -9,5 -4,16 -1,24l34 96c3,7 6,18 11,21 4,2 10,2 13,0 4,-3 4,-6 6,-11 2,-5 32,-93 34,-97z"/>
    <path class="fil0" d="M601 102c0,-10 6,-18 12,-22 19,-10 46,-6 66,-1 1,0 3,0 3,2l0 14c0,22 -23,36 -46,36 -18,0 -35,-10 -35,-27l0 -2zm81 -38c-5,0 -16,-5 -35,-5 -13,-1 -24,0 -36,4 -19,6 -35,22 -31,48 6,37 60,49 92,24 2,-2 3,-3 5,-5 1,-1 2,-2 3,-3 1,-1 1,-2 2,-3 0,9 -1,20 7,22 4,2 8,0 11,-2 2,-3 2,-7 2,-12 0,-19 0,-38 0,-57 0,-19 1,-33 -8,-48 -6,-11 -18,-20 -34,-23 -15,-2 -37,-1 -51,4 -7,2 -16,4 -14,14 1,3 4,6 8,7 4,0 8,-2 11,-4 14,-5 36,-5 49,1 17,8 19,22 19,38z"/>
    <path class="fil0" d="M827 67c-1,-11 6,-24 13,-32 16,-20 56,-23 71,14 1,4 4,13 4,18l-88 0zm0 16c16,0 32,0 49,0 16,0 33,0 49,0 10,-1 11,-8 10,-15 -1,-21 -9,-39 -23,-51 -19,-17 -51,-20 -75,-5 -18,12 -33,35 -31,68 1,30 18,51 38,61 28,14 62,6 83,-15 8,-8 -4,-21 -14,-12 -19,19 -54,22 -74,0 -1,-1 -2,-3 -3,-4 -5,-7 -10,-18 -9,-27z"/>
    <path class="fil0" d="M749 36c-1,-8 1,-24 -3,-30 -2,-2 -6,-4 -11,-3 -4,1 -7,5 -7,9 -1,7 -1,24 0,32 0,16 -1,91 0,96 3,8 15,9 19,1 5,-11 -5,-60 9,-88 7,-13 18,-24 36,-28 5,-1 10,-1 12,-4 3,-2 4,-8 2,-12 -6,-14 -35,0 -43,9 -3,2 -5,4 -8,8 -3,3 -5,9 -6,10z"/>
    <path class="fil0" d="M952 6c17,-4 23,24 6,28 -18,4 -25,-23 -6,-28zm0 -3c-9,1 -16,9 -15,19 1,9 9,17 20,15 22,-3 18,-37 -5,-34z"/>
    <path class="fil0" d="M951 15l3 0c3,0 4,1 3,4 -1,0 -2,0 -3,0l-3 0 0 -4zm-3 13l3 0c1,-1 0,-3 1,-5 6,-1 4,7 9,5 1,-3 -1,-3 -2,-6 2,-2 4,-4 2,-8 -1,-2 -4,-3 -8,-3 -6,0 -5,0 -5,6 0,4 -1,9 0,11z"/>
   </g>
  </g>
 </g>
</svg>
