<?xml version="1.0" encoding="UTF-8"?>
<!DOCTYPE svg PUBLIC "-//W3C//DTD SVG 1.1//EN" "http://www.w3.org/Graphics/SVG/1.1/DTD/svg11.dtd">
<!-- Creator: CorelDRAW X7 -->
<svg xmlns="http://www.w3.org/2000/svg" xml:space="preserve" width="58.6941mm" height="22.6939mm" version="1.1" style="shape-rendering:geometricPrecision; text-rendering:geometricPrecision; image-rendering:optimizeQuality; fill-rule:evenodd; clip-rule:evenodd"
viewBox="0 0 2193 848"
 xmlns:xlink="http://www.w3.org/1999/xlink">
 <defs>
  <style type="text/css">
   <![CDATA[
    .fil0 {fill:#323234}
   ]]>
  </style>
 </defs>
 <g id="Layer_x0020_1">
  <metadata id="CorelCorpID_0Corel-Layer"/>
  <g id="_1588531225728">
   <g>
    <path class="fil0" d="M350 414c-7,4 -196,149 -208,158 -4,3 -7,5 -11,9l-65 50c-8,5 -14,11 -22,16l-38 30c-1,1 -2,1 -3,2 -1,1 -2,2 -3,2l274 0c9,1 9,-1 14,-5l144 -111c5,-3 17,-14 22,-15 4,6 8,10 12,16l37 48c8,12 16,22 25,33 4,5 7,10 12,16 2,3 4,4 6,8 1,1 2,2 3,4 1,1 2,3 3,4 3,3 5,2 11,2 71,0 145,0 215,0 -1,-3 -19,-26 -22,-30l-34 -45c-4,-5 -8,-9 -12,-15l-46 -60c-4,-5 -7,-10 -11,-15 -6,-8 -56,-72 -57,-76l41 -32c4,-3 7,-5 11,-8 3,-3 7,-5 10,-8 8,-5 14,-11 21,-16 7,-5 14,-11 21,-16l73 -56c4,-2 7,-5 11,-8l62 -48c8,-6 82,-62 84,-65 -12,0 -275,-1 -280,1 -3,1 -95,72 -109,82l-40 31c-2,2 -7,7 -10,7 -1,-3 -30,-40 -35,-46 -4,-6 -8,-10 -12,-16 -8,-10 -15,-20 -23,-31l-18 -23c-3,-4 -3,-5 -9,-5 -72,-1 -147,0 -219,0 1,4 8,12 10,15l143 186c7,10 15,20 22,30z"/>
    <path class="fil0" d="M84 602c4,-1 18,-12 22,-15l43 -33c3,-3 18,-15 22,-16 -2,-15 -49,-98 -8,-222 6,-18 18,-43 28,-60 4,-6 8,-12 11,-18l-42 -57c-2,-2 -5,-5 -6,-8 32,0 64,0 97,0 20,0 8,2 33,-15 31,-21 64,-35 102,-44 27,-7 39,-6 64,-9 9,-1 15,1 23,1 49,0 109,22 148,47l21 14c2,2 5,5 7,5 4,1 134,1 145,1 -2,-3 -4,-6 -6,-9 -14,-17 -20,-26 -36,-42l-51 -43c-12,-9 -41,-27 -57,-35 -51,-26 -117,-44 -175,-44 -52,0 -91,3 -137,19 -54,18 -95,39 -138,74 -4,3 -6,6 -10,8 -49,40 -91,104 -115,163 -12,31 -23,71 -26,106 -3,34 -4,72 2,107 1,10 3,18 5,28 4,19 9,34 15,51l14 35c2,4 4,7 5,11z"/>
    <path class="fil0" d="M1399 342l7 -40c1,-3 1,-3 -1,-4l-168 0 -22 103c-2,12 -5,23 -7,35 -2,8 -29,131 -29,138l176 0c0,-6 10,-54 12,-62 3,-21 7,-40 11,-62 2,-11 4,-20 6,-31 1,-6 3,-7 6,-11 10,-13 37,-36 57,-36 13,0 23,-1 33,8 15,15 5,51 3,67 -3,14 -5,28 -8,42l-11 60c-1,7 -3,15 -3,21 53,0 116,-1 169,0 4,0 3,0 5,-6l9 -52c8,-41 20,-89 20,-130 0,-50 -22,-81 -66,-92 -7,-2 -13,-3 -22,-4 -15,-2 -34,-2 -49,0 -46,6 -75,20 -113,45 -6,4 -10,8 -15,11z"/>
    <path class="fil0" d="M1017 403l-105 0c1,-15 10,-32 19,-40 5,-5 11,-8 18,-11 30,-10 70,-3 70,29 0,16 -1,13 -2,22zm-290 65c0,30 7,47 26,67 9,10 28,21 40,27 67,33 225,29 295,5 27,-9 52,-21 68,-44 7,-8 11,-19 11,-31l-177 0c-4,16 -25,37 -48,37 -67,0 -51,-50 -51,-70l281 0c7,0 11,-37 11,-42 0,-28 -2,-47 -17,-70 -30,-46 -98,-63 -157,-63 -50,0 -76,1 -124,14 -67,18 -122,62 -148,126 -4,10 -10,29 -10,44z"/>
    <path class="fil0" d="M146 692c2,5 22,23 27,28 3,3 4,4 7,7l23 19c69,51 152,86 247,86 45,0 72,-3 113,-13 37,-10 83,-30 115,-51 13,-8 36,-24 48,-35l35 -33c3,-3 5,-5 7,-8 -28,0 -56,0 -83,0 -27,0 -57,-1 -84,0 -6,0 -9,3 -14,6l-30 11c-78,26 -161,22 -235,-14l-21 -11c-9,-5 -9,8 -22,8l-133 0z"/>
    <path class="fil0" d="M1230 699l-19 0c0,-7 6,-31 8,-41 3,-14 -2,-12 21,-12 55,0 31,40 22,45 -9,6 -17,8 -32,8zm-96 101l57 0c0,-4 2,-9 3,-14l5 -28c1,-5 3,-9 3,-14 34,0 72,0 98,-23 27,-23 41,-61 27,-91 -9,-19 -35,-31 -59,-31l-95 0c0,6 -26,140 -29,151 -1,9 -3,17 -5,25 -1,6 -3,21 -5,25z"/>
    <path class="fil0" d="M1538 757c-15,0 -28,-11 -28,-24 0,-13 3,-23 11,-31 18,-20 47,-16 53,3 9,24 -12,52 -36,52zm-83 -22c0,24 5,37 22,53 31,29 92,18 122,-13 19,-18 32,-39 32,-68 0,-38 -31,-66 -66,-66 -27,0 -43,4 -65,19l-16 13c0,0 0,0 -1,1 0,0 0,0 0,0 0,0 0,1 -1,1 -7,8 -11,12 -16,22 -5,10 -11,23 -11,38z"/>
    <path class="fil0" d="M1817 682c16,0 24,5 24,28l-54 0c2,-4 2,-6 5,-9 5,-9 13,-19 25,-19zm-87 58c0,69 83,84 137,40 3,-3 4,-3 7,-7 -2,-5 -14,-15 -19,-19 -3,-3 -4,-4 -7,-6 -18,12 -18,15 -41,15 -14,0 -24,-10 -24,-25l101 0c7,0 16,-53 -8,-79 -4,-4 -13,-10 -18,-12 -21,-10 -54,-6 -73,5 -11,6 -18,11 -27,20 -4,4 -7,9 -10,13 -4,6 -6,10 -9,16 -4,9 -9,26 -9,39z"/>
    <path class="fil0" d="M2101 645l-19 0c0,6 -3,16 -4,22 -1,7 -3,15 -4,22l18 0c0,27 -28,86 -4,105 21,16 65,9 73,2 3,-2 1,1 3,-5 2,-8 5,-34 8,-39 -4,0 -35,12 -35,-4 0,-5 1,-10 2,-15l6 -29c1,-5 2,-10 2,-15l37 0c1,-12 8,-34 9,-44l-36 0c0,-6 6,-33 7,-39l-56 0 -7 39z"/>
    <path class="fil0" d="M1973 805c18,0 30,-4 45,-11 8,-5 25,-18 30,-25l-23 -20c-3,-3 -5,-4 -7,-8 -9,7 -15,15 -29,16 -37,5 -38,-45 -10,-64 19,-12 40,-2 43,12 5,-3 41,-26 43,-29 -2,-9 -13,-19 -20,-25 -11,-8 -26,-10 -42,-10 -25,0 -46,12 -60,22 -58,45 -51,142 30,142z"/>
    <path class="fil0" d="M1622 809l-10 0c0,9 -6,27 -6,37 7,0 14,2 22,2 58,0 64,-37 71,-79l25 -124 -56 0c-8,36 -18,92 -26,132 -3,14 -3,32 -20,32z"/>
    <path class="fil0" d="M1405 673l0 0c0,0 0,0 0,0zm1 -1c0,-10 4,-17 4,-27l-55 0c-7,31 -15,81 -22,116 -3,13 -5,27 -8,39l56 0c1,-12 11,-61 15,-68 12,-24 25,-32 53,-32l12 -58c-37,-3 -48,25 -55,30z"/>
    <path class="fil0" d="M718 583c0,2 22,29 24,33l43 55c9,-6 49,-74 50,-84 -67,-16 -87,-47 -94,-49 -1,5 -8,19 -10,23 -2,4 -4,8 -6,11l-7 11z"/>
    <path class="fil0" d="M755 331c2,8 6,19 6,28 6,-1 6,-6 10,-9l11 -10c14,-13 41,-29 59,-37 4,-2 10,-5 14,-6 0,-8 -10,-28 -10,-34 -3,1 -4,2 -6,4l-61 47c-8,5 -15,11 -23,17z"/>
    <path class="fil0" d="M1669 631l51 0c10,0 7,2 12,-20 5,-26 7,-21 -12,-21 -14,0 -28,0 -42,0l-9 41z"/>
   </g>
  </g>
 </g>
</svg>
