<?xml version="1.0" encoding="UTF-8"?>
<!DOCTYPE svg PUBLIC "-//W3C//DTD SVG 1.1//EN" "http://www.w3.org/Graphics/SVG/1.1/DTD/svg11.dtd">
<!-- Creator: CorelDRAW X7 -->
<svg xmlns="http://www.w3.org/2000/svg" xml:space="preserve" width="229.264mm" height="136.381mm" version="1.1" style="shape-rendering:geometricPrecision; text-rendering:geometricPrecision; image-rendering:optimizeQuality; fill-rule:evenodd; clip-rule:evenodd"
viewBox="0 0 9185 5464"
 xmlns:xlink="http://www.w3.org/1999/xlink">
 <defs>
  <style type="text/css">
   <![CDATA[
    .fil1 {fill:#D9DBDC}
    .fil4 {fill:#323234}
    .fil0 {fill:#DAEAE4}
    .fil3 {fill:#FEB61D}
    .fil2 {fill:#454346;fill-rule:nonzero}
   ]]>
  </style>
 </defs>
 <g id="Layer_x0020_1">
  <metadata id="CorelCorpID_0Corel-Layer"/>
  <g id="_1588531250112">
   <path class="fil0" d="M120 0l2918 0 0 883 -3038 0 0 -763c0,-66 54,-120 120,-120z"/>
   <rect class="fil1" x="3073" width="3038" height="883"/>
   <path class="fil1" d="M9064 0l-2918 0 0 883 3039 0 0 -763c0,-66 -54,-120 -121,-120z"/>
   <rect class="fil0" y="915" width="3038" height="883"/>
   <rect class="fil1" x="3073" y="915" width="3038" height="883"/>
   <rect class="fil1" x="6146" y="915" width="3038" height="883"/>
   <path class="fil2" d="M3523 320c35,0 62,11 81,33 20,23 29,54 29,95 0,27 -4,50 -13,69 -9,19 -21,34 -38,44 -17,11 -36,16 -59,16 -23,0 -43,-5 -59,-15 -17,-11 -29,-25 -38,-44 -9,-20 -13,-43 -13,-70 0,-26 4,-49 13,-68 9,-20 21,-35 38,-45 16,-10 36,-15 59,-15zm0 42c-17,0 -29,7 -37,21 -9,13 -13,35 -13,65 0,30 4,52 13,66 8,13 20,20 37,20 17,0 29,-6 37,-20 9,-14 13,-36 13,-66 0,-30 -4,-52 -13,-66 -8,-13 -20,-20 -37,-20z"/>
   <path id="1" class="fil2" d="M3785 562c-7,5 -15,8 -24,11 -9,2 -18,4 -27,4 -41,-1 -62,-23 -62,-68l0 -87 -26 0 0 -39 26 0 0 -41 56 -6 0 47 43 0 -6 39 -37 0 0 86c0,9 2,15 4,19 3,4 8,6 14,6 6,0 13,-2 20,-6l19 35z"/>
   <path id="2" class="fil2" d="M3913 377c16,0 29,5 38,15 10,10 14,24 14,42l0 137 -56 0 0 -128c0,-9 -1,-16 -4,-19 -3,-4 -8,-6 -13,-6 -12,0 -22,8 -33,24l0 129 -56 0 0 -262 56 -6 0 100c8,-8 16,-15 25,-19 9,-5 18,-7 29,-7z"/>
   <path id="3" class="fil2" d="M4171 473c0,8 -1,15 -1,20l-116 0c1,16 6,27 13,34 7,6 17,9 29,9 8,0 15,-1 22,-4 7,-3 15,-7 23,-13l23 32c-22,17 -46,26 -73,26 -30,0 -54,-9 -70,-27 -16,-18 -24,-42 -24,-72 0,-19 3,-36 10,-52 7,-15 17,-27 30,-36 13,-9 29,-13 47,-13 27,0 49,9 64,26 15,16 23,40 23,70zm-55 -16c0,-28 -11,-43 -30,-43 -10,0 -17,4 -23,11 -5,7 -8,19 -9,35l62 0 0 -3z"/>
   <path id="4" class="fil2" d="M4304 378c7,0 13,1 19,2l-9 54c-7,-1 -13,-2 -17,-2 -11,0 -20,4 -25,11 -6,8 -11,19 -14,35l0 93 -56 0 0 -188 49 0 5 36c4,-12 10,-23 19,-30 8,-8 18,-11 29,-11z"/>
   <polygon id="5" class="fil2" points="4429,571 4429,326 4575,326 4569,367 4487,367 4487,432 4558,432 4558,474 4487,474 4487,571 "/>
   <path id="6" class="fil2" d="M4689 378c7,0 13,1 19,2l-9 54c-7,-1 -13,-2 -17,-2 -11,0 -19,4 -25,11 -6,8 -11,19 -14,35l0 93 -56 0 0 -188 49 0 5 36c4,-12 10,-23 19,-30 9,-8 18,-11 29,-11z"/>
   <path id="7" class="fil2" d="M4882 473c0,8 0,15 -1,20l-116 0c2,16 6,27 13,34 7,6 17,9 29,9 8,0 15,-1 22,-4 7,-3 15,-7 23,-13l23 32c-22,17 -46,26 -73,26 -30,0 -54,-9 -70,-27 -16,-18 -24,-42 -24,-72 0,-19 3,-36 10,-52 7,-15 17,-27 30,-36 13,-9 29,-13 47,-13 28,0 49,9 64,26 15,16 23,40 23,70zm-55 -16c0,-28 -10,-43 -30,-43 -10,0 -17,4 -23,11 -5,7 -8,19 -9,35l62 0 0 -3z"/>
   <path id="8" class="fil2" d="M5077 473c0,8 0,15 -1,20l-116 0c2,16 6,27 13,34 7,6 17,9 30,9 7,0 14,-1 21,-4 7,-3 15,-7 23,-13l23 32c-22,17 -46,26 -73,26 -30,0 -53,-9 -70,-27 -16,-18 -24,-42 -24,-72 0,-19 3,-36 10,-52 7,-15 17,-27 30,-36 13,-9 29,-13 47,-13 28,0 49,9 64,26 15,16 23,40 23,70zm-55 -16c0,-28 -10,-43 -30,-43 -10,0 -17,4 -23,11 -5,7 -8,19 -9,35l62 0 0 -3z"/>
   <polygon id="9" class="fil2" points="5377,326 5308,571 5236,571 5166,326 5227,326 5274,525 5317,326 "/>
   <path id="10" class="fil2" d="M5474 326c32,0 57,7 75,20 18,13 27,33 27,60 0,27 -9,48 -26,62 -18,14 -41,21 -71,21l-26 0 0 82 -58 0 0 -245 79 0zm0 121c14,0 24,-3 31,-9 8,-7 11,-17 11,-32 0,-26 -14,-39 -43,-39l-20 0 0 80 21 0z"/>
   <path id="11" class="fil2" d="M5795 571l-73 0 -71 -190c2,19 4,35 5,49 2,15 2,31 2,51l0 90 -51 0 0 -245 72 0 72 190c-5,-32 -8,-63 -8,-91l0 -99 52 0 0 245z"/>
   <path class="fil2" d="M6566 320c35,0 62,11 82,33 19,23 29,54 29,95 0,27 -4,50 -13,69 -9,19 -22,34 -38,44 -17,11 -37,16 -60,16 -22,0 -42,-5 -59,-15 -16,-11 -29,-25 -38,-44 -8,-20 -13,-43 -13,-70 0,-26 5,-49 13,-68 9,-20 22,-35 38,-45 17,-10 37,-15 59,-15zm0 42c-16,0 -29,7 -37,21 -8,13 -12,35 -12,65 0,30 4,52 12,66 9,13 21,20 37,20 17,0 30,-6 38,-20 8,-14 12,-36 12,-66 0,-30 -4,-52 -12,-66 -8,-13 -21,-20 -38,-20z"/>
   <path id="1" class="fil2" d="M6828 562c-7,5 -14,8 -24,11 -9,2 -18,4 -27,4 -41,-1 -61,-23 -61,-68l0 -87 -27 0 0 -39 27 0 0 -41 56 -6 0 47 43 0 -6 39 -37 0 0 86c0,9 1,15 4,19 3,4 7,6 13,6 7,0 13,-2 21,-6l18 35z"/>
   <path id="2" class="fil2" d="M6957 377c16,0 29,5 38,15 9,10 14,24 14,42l0 137 -56 0 0 -128c0,-9 -2,-16 -5,-19 -3,-4 -7,-6 -13,-6 -11,0 -22,8 -32,24l0 129 -56 0 0 -262 56 -6 0 100c8,-8 16,-15 25,-19 8,-5 18,-7 29,-7z"/>
   <path id="3" class="fil2" d="M7214 473c0,8 0,15 -1,20l-116 0c2,16 7,27 14,34 7,6 16,9 29,9 7,0 15,-1 22,-4 7,-3 15,-7 23,-13l23 32c-22,17 -47,26 -73,26 -31,0 -54,-9 -70,-27 -17,-18 -25,-42 -25,-72 0,-19 4,-36 11,-52 6,-15 16,-27 30,-36 13,-9 29,-13 47,-13 27,0 48,9 63,26 16,16 23,40 23,70zm-54 -16c-1,-28 -11,-43 -31,-43 -9,0 -17,4 -22,11 -5,7 -9,19 -10,35l63 0 0 -3z"/>
   <path id="4" class="fil2" d="M7348 378c6,0 13,1 18,2l-8 54c-8,-1 -13,-2 -17,-2 -11,0 -20,4 -26,11 -5,8 -10,19 -13,35l0 93 -56 0 0 -188 49 0 4 36c4,-12 11,-23 20,-30 8,-8 18,-11 29,-11z"/>
   <path id="5" class="fil2" d="M7552 326c32,0 57,7 75,20 18,13 27,33 27,60 0,27 -9,48 -27,62 -17,14 -41,21 -70,21l-27 0 0 82 -58 0 0 -245 80 0zm0 121c14,0 24,-3 31,-9 7,-7 11,-17 11,-32 0,-26 -14,-39 -43,-39l-21 0 0 80 22 0z"/>
   <path id="6" class="fil2" d="M7814 516c0,7 1,13 3,16 2,3 5,6 10,7l-12 37c-11,-1 -21,-4 -28,-8 -7,-4 -13,-11 -17,-20 -12,19 -31,29 -57,29 -18,0 -33,-6 -44,-17 -11,-10 -17,-25 -17,-42 0,-20 8,-36 23,-47 15,-11 37,-16 65,-16l19 0 0 -8c0,-11 -2,-19 -7,-23 -5,-4 -13,-6 -25,-6 -6,0 -13,1 -22,2 -9,2 -17,5 -27,8l-12 -37c11,-5 23,-8 36,-10 12,-3 24,-4 34,-4 27,0 47,6 59,17 13,11 19,27 19,50l0 72zm-84 21c12,0 22,-6 29,-18l0 -33 -14 0c-12,0 -22,2 -28,6 -6,5 -9,12 -9,21 0,8 2,13 6,18 3,4 9,6 16,6z"/>
   <path id="7" class="fil2" d="M7914 383l0 188 -55 0 0 -188 55 0zm-28 -99c10,0 18,3 24,9 6,6 9,14 9,23 0,9 -3,17 -9,23 -6,6 -14,9 -24,9 -10,0 -17,-3 -24,-9 -6,-6 -9,-14 -9,-23 0,-9 3,-17 9,-23 7,-6 14,-9 24,-9z"/>
   <path id="8" class="fil2" d="M8126 309l0 262 -49 0 -3 -22c-13,18 -31,28 -53,28 -24,0 -41,-9 -53,-27 -13,-18 -19,-43 -19,-74 0,-19 4,-36 10,-51 6,-15 15,-27 27,-35 12,-9 25,-13 40,-13 18,0 33,6 45,18l0 -92 55 6zm-88 227c13,0 24,-7 33,-21l0 -81c-5,-6 -9,-10 -14,-12 -5,-3 -10,-4 -16,-4 -10,0 -18,5 -25,14 -6,10 -9,25 -9,45 0,22 3,37 8,46 6,8 13,13 23,13z"/>
   <polygon id="9" class="fil2" points="8438,326 8370,571 8298,571 8227,326 8289,326 8335,525 8379,326 "/>
   <path id="10" class="fil2" d="M8536 326c32,0 57,7 75,20 18,13 27,33 27,60 0,27 -9,48 -27,62 -17,14 -41,21 -70,21l-27 0 0 82 -58 0 0 -245 80 0zm0 121c14,0 24,-3 31,-9 7,-7 11,-17 11,-32 0,-26 -14,-39 -43,-39l-21 0 0 80 22 0z"/>
   <path id="11" class="fil2" d="M8857 571l-74 0 -70 -190c2,19 4,35 5,49 1,15 2,31 2,51l0 90 -52 0 0 -245 72 0 73 190c-5,-32 -8,-63 -8,-91l0 -99 52 0 0 245z"/>
   <g>
    <path class="fil3" d="M2093 506c0,-2 1,-11 2,-14l19 -76c1,-4 -1,-3 4,-5 11,-5 27,-3 35,4 15,14 10,49 2,63 -2,6 -10,15 -14,18l-22 10c-13,2 -16,1 -26,0zm-70 95l47 0c0,-7 11,-50 15,-58 28,0 21,6 56,-4 15,-4 26,-10 36,-21 31,-31 32,-55 32,-92 0,-10 -11,-32 -19,-39 -24,-23 -71,-18 -101,-11 -13,3 -12,5 -14,9 0,1 -1,5 -1,6l-16 66c-1,5 -1,5 -2,12l-18 71c-1,6 -2,8 -3,13l-8 36c-1,4 -3,8 -4,12z"/>
    <path class="fil3" d="M2260 382c0,7 1,5 -1,10l-19 79c-2,7 -1,4 -3,10l-9 39c-1,4 -2,7 -2,11 -2,6 -2,4 -3,11l46 0c1,-6 2,-8 3,-16 1,-4 3,-11 5,-16 1,-6 1,-11 3,-16l14 -57c2,-7 5,-18 5,-26 11,-1 24,-7 35,1 14,10 5,38 2,52l-19 78 47 0c0,-8 1,-7 3,-15l7 -28c3,-24 28,-84 3,-112 -18,-21 -53,-17 -77,-15l-40 10z"/>
    <path class="fil3" d="M1901 542l39 0c47,-44 91,-139 103,-168l-48 1c-11,21 -47,106 -62,110 -4,-36 -7,-75 -8,-111l-48 0c0,57 14,127 24,168z"/>
    <path class="fil4" d="M1296 410c5,0 15,3 18,6 3,4 8,15 8,18 0,17 0,28 -7,42 -11,20 -28,35 -51,34 -16,0 -14,2 -6,-32l8 -28c2,-8 4,-23 7,-29 1,-3 0,-1 3,-4 5,-4 19,-7 20,-7zm-98 127c9,1 103,39 151,-33 17,-25 25,-54 17,-85 -2,-13 -4,-21 -16,-32 -15,-15 -36,-18 -58,-12 -11,3 -11,5 -2,-28l11 -52c-12,1 -23,4 -36,5 -11,2 -10,0 -13,9l-50 209c-2,7 -3,14 -4,19z"/>
    <path class="fil4" d="M1611 452c1,-4 4,-14 6,-17 9,-20 36,-35 51,-23 20,14 -3,36 -35,38 -3,0 -7,0 -11,0 -7,0 -5,1 -11,2zm-47 12c0,29 -2,48 21,69 22,21 79,17 103,6 0,-13 -3,-24 -3,-36 -13,1 -14,4 -21,5 -7,1 -19,2 -25,1 -9,-1 -14,-1 -20,-6 -4,-4 -8,-12 -8,-19 31,0 86,-7 100,-39 4,-11 5,-14 6,-26 2,-42 -43,-59 -91,-40 -20,7 -42,29 -50,47 -4,10 -12,25 -12,38z"/>
    <path class="fil4" d="M1487 408c16,0 22,17 11,29 -8,8 -26,13 -42,13 -17,0 -19,5 -11,-14 5,-10 10,-16 20,-23 6,-4 14,-5 22,-5zm-94 53c0,30 -3,51 22,73 6,5 13,8 21,10 24,7 63,3 81,-5 0,-11 -4,-25 -5,-36 -16,4 -45,11 -60,2 -5,-2 -16,-16 -12,-20l31 -4c28,-4 56,-11 69,-37 32,-66 -58,-101 -113,-46 -20,20 -24,29 -31,53 -1,4 -3,5 -3,10z"/>
    <path class="fil4" d="M1759 384c0,7 0,5 -1,10l-17 70c-2,6 -3,12 -4,20l-12 49c-2,5 -3,5 -3,10l47 0 31 -127c5,-11 38,-3 49,0 4,-5 2,-2 4,-9 4,-10 8,-18 11,-30 -41,-6 -65,-5 -105,7z"/>
    <g>
     <path class="fil3" d="M620 650c8,2 3,2 15,8 20,12 38,16 60,21l29 5c8,0 13,1 20,2l46 1c6,-1 13,-3 20,-3 33,-2 69,-11 98,-28 7,-4 4,-3 6,-6 3,-3 3,-2 3,-15 0,-35 0,-85 -1,-116 -1,-21 -1,-43 -1,-64 0,-18 -5,-48 -3,-63 -4,2 -7,3 -11,6 -4,2 -7,4 -11,5 -4,2 -7,3 -12,4 -7,3 -7,4 -12,6 2,22 0,90 0,121 0,23 -7,20 -11,29 -14,0 -22,-6 -22,-20 -2,-31 3,-101 -2,-124 -9,0 -14,1 -22,3 -9,1 -17,1 -25,1 -18,0 -35,0 -52,0 -2,1 -2,2 -3,4 8,16 7,31 -6,43l-13 10c-10,6 -32,4 -44,2 -9,-2 -13,-9 -19,-13 -15,-10 -15,-36 -6,-48 2,-3 6,-5 8,-7 2,-1 8,-8 9,-9 -8,0 -6,-2 -15,-6 -5,-2 -12,-6 -16,-7 -5,24 -5,216 -7,258z"/>
     <path class="fil4" d="M937 403c18,-4 16,-22 39,-31 6,-2 10,-4 16,2 15,14 13,81 13,110 0,40 -8,59 -25,86 -3,5 -6,10 -10,13 -2,3 -9,8 -13,10 -6,3 -8,5 -17,5l-2 -58c1,-15 0,-31 0,-47 0,-16 -1,-28 -1,-43 0,-16 0,-31 0,-47zm-279 2c-1,1 -7,8 -9,9 -2,2 -6,4 -8,7 -9,12 -9,38 6,48 6,4 10,11 19,13 12,2 34,4 44,-2l13 -10c13,-12 14,-27 6,-43 1,-2 1,-3 3,-4 -6,-4 -4,-1 -10,-6 -12,-12 -8,-16 -8,-46 15,0 24,-8 34,-13 6,4 11,9 17,12 12,6 24,7 37,3 15,-4 20,-12 28,-18 16,8 27,12 46,8 22,-4 24,-13 34,-19 1,-1 0,-1 3,-2 0,14 1,39 -1,50 -2,15 3,45 3,63 0,21 0,43 1,64 1,31 1,81 1,116 0,13 0,12 -3,15 6,8 5,27 5,37 0,14 -4,16 -22,24 -20,10 -27,10 -46,16 -18,5 -63,10 -82,10 -32,0 -96,-9 -128,-25 -18,-9 -22,-9 -22,-23l1 -39c2,-42 2,-234 7,-258 -2,-10 0,-34 0,-53 10,0 30,-3 31,17 1,15 0,33 0,49zm277 -32l0 -26c6,-2 6,-1 10,-5 24,-16 58,-22 79,-1 10,11 14,27 18,44 1,7 2,21 3,28 3,41 3,88 -9,126 -2,4 -3,8 -5,12l-11 22c-9,16 -17,25 -29,37 -6,5 -51,35 -51,16 0,-8 12,-5 20,-8 19,-8 32,-23 44,-40 3,-6 6,-11 9,-18 18,-43 16,-67 16,-115 0,-25 -2,-68 -18,-86 -30,-35 -69,12 -76,14zm-9 -134c8,0 15,-6 29,9 28,28 2,70 -25,66 -12,-2 -12,-5 -21,-8 -10,10 -3,13 -15,26 -13,14 -34,20 -51,7 -10,-6 -6,-10 -21,-10l-12 18c-32,25 -47,-7 -62,-15 -11,6 -10,12 -25,17 -35,14 -28,-15 -28,69 0,10 19,1 19,30 0,9 -18,20 -29,20 -21,0 -42,-24 -22,-40 19,-15 14,11 14,-83 0,-4 -10,-14 -13,-18 -7,-10 -1,-11 -14,-17 -16,10 -23,15 -43,7 -20,-8 -26,-25 -26,-46 0,-23 26,-49 48,-39 4,-6 5,-2 7,-12 3,-14 7,-26 27,-31 16,-4 29,7 35,20 17,35 16,-28 49,-8l9 4c11,2 9,-17 31,-29 14,-7 31,-7 45,0 23,10 24,30 31,30 13,0 9,-12 30,-12 15,0 26,18 26,29 0,0 -4,16 7,16zm-173 -58c-6,0 -19,-10 -45,8 -6,-10 -17,-16 -28,-19 -10,-2 -11,-2 -20,0 -5,1 -13,4 -17,7 -11,6 -18,15 -22,26 -4,11 -5,8 -13,9 -16,3 -32,17 -39,31 -19,38 -4,75 33,94 0,26 -2,48 -2,73 0,24 1,52 0,75l-3 71c-1,25 0,51 0,76 0,72 -17,76 42,104 28,13 88,23 129,23 37,0 75,-6 104,-14 8,-2 15,-4 22,-7 18,-7 48,-22 48,-45 0,-56 -10,-28 32,-45 16,-7 36,-21 46,-34 23,-30 20,-24 37,-64 17,-43 17,-131 7,-177 -5,-24 -14,-38 -29,-53 -15,-16 -33,-15 -55,-15 1,-9 4,-11 6,-21l-1 -15c-3,-24 -14,-42 -40,-48 -18,-5 -1,-7 -19,-31 -7,-9 -22,-16 -34,-16 -11,0 -18,5 -26,7 -16,-31 -69,-42 -103,-11 -3,2 -7,11 -10,11z"/>
     <path class="fil4" d="M831 419c5,23 0,93 2,124 0,14 8,20 22,20 4,-9 11,-6 11,-29 0,-31 2,-99 0,-121 -2,-9 -9,-18 -21,-16 -3,1 -8,5 -10,8 -3,5 -3,8 -4,14z"/>
    </g>
   </g>
   <rect class="fil0" y="1831" width="3038" height="883"/>
   <rect class="fil1" x="3073" y="1831" width="3038" height="883"/>
   <rect class="fil1" x="6146" y="1831" width="3038" height="883"/>
   <rect class="fil0" y="2750" width="3038" height="883"/>
   <rect class="fil1" x="3073" y="2750" width="3038" height="883"/>
   <rect class="fil1" x="6146" y="2750" width="3038" height="883"/>
   <rect class="fil0" y="3665" width="3038" height="883"/>
   <rect class="fil1" x="3073" y="3665" width="3038" height="883"/>
   <rect class="fil1" x="6146" y="3665" width="3038" height="883"/>
   <path class="fil0" d="M0 4580l3038 0 0 884 -2918 0c-66,0 -120,-55 -120,-121l0 -763z"/>
   <rect class="fil1" x="3073" y="4580" width="3038" height="883"/>
   <path class="fil1" d="M9185 4580l-3039 0 0 884 2918 0c67,0 121,-55 121,-121l0 -763z"/>
   <path class="fil2" d="M576 1308l60 0c41,0 67,-18 67,-56 0,-37 -29,-51 -68,-51l-36 0 0 -59 91 0 0 -19 -114 0 0 185zm23 -19l0 -70 32 0c32,0 48,10 48,33 0,26 -15,37 -47,37l-33 0z"/>
   <path id="1" class="fil2" d="M793 1311c19,0 33,-6 45,-14l-8 -15c-10,6 -21,11 -34,11 -26,0 -44,-19 -46,-48l93 0c0,-3 1,-9 1,-13 0,-40 -20,-65 -55,-65 -32,0 -62,28 -62,73 0,44 29,71 66,71zm-43 -83c3,-27 20,-42 39,-42 22,0 34,15 34,42l-73 0z"/>
   <path id="2" class="fil2" d="M932 1311c16,0 32,-6 44,-17l-10 -16c-8,8 -19,14 -32,14 -25,0 -43,-21 -43,-52 0,-32 19,-54 43,-54 11,0 20,5 28,13l12 -16c-10,-8 -22,-16 -40,-16 -36,0 -67,26 -67,73 0,45 28,71 65,71z"/>
   <polygon id="3" class="fil2" points="1006,1308 1030,1308 1030,1190 1093,1190 1093,1308 1116,1308 1116,1171 1006,1171 "/>
   <path id="4" class="fil2" d="M1155 1311c20,0 32,-15 36,-45 3,-26 7,-51 9,-76l43 0 0 118 24 0 0 -137 -85 0c-3,29 -7,59 -10,89 -3,20 -9,29 -19,29 -2,0 -4,-1 -6,-1l-5 21c4,1 8,2 13,2z"/>
   <path id="5" class="fil2" d="M1345 1311c17,0 32,-9 45,-19l1 0 2 16 19 0 0 -84c0,-34 -14,-57 -48,-57 -22,0 -41,10 -54,18l9 16c11,-7 26,-15 41,-15 23,0 29,17 29,35 -59,6 -85,21 -85,51 0,25 18,39 41,39zm6 -18c-13,0 -24,-7 -24,-22 0,-18 16,-29 62,-35l0 38c-14,12 -24,19 -38,19z"/>
   <polygon id="6" class="fil2" points="1482,1308 1505,1308 1505,1190 1551,1190 1551,1171 1436,1171 1436,1190 1482,1190 "/>
   <polygon id="7" class="fil2" points="1581,1308 1605,1308 1605,1247 1671,1247 1671,1308 1694,1308 1694,1171 1671,1171 1671,1226 1605,1226 1605,1171 1581,1171 "/>
   <path id="8" class="fil2" d="M1794 1311c33,0 63,-26 63,-71 0,-47 -30,-73 -63,-73 -34,0 -64,26 -64,73 0,45 30,71 64,71zm0 -19c-24,0 -40,-21 -40,-52 0,-32 16,-54 40,-54 23,0 39,22 39,54 0,31 -16,52 -39,52z"/>
   <path id="9" class="fil2" d="M1950 1308l21 0 53 -79c5,-8 13,-21 18,-29l1 0c-1,18 -2,36 -2,51l0 57 22 0 0 -137 -21 0 -52 78c-5,8 -13,21 -19,29l-1 0c1,-17 3,-36 3,-50l0 -57 -23 0 0 137z"/>
   <path id="10" class="fil2" d="M2223 1292c-28,0 -43,-23 -43,-63 0,-4 0,-7 0,-11 14,-18 29,-25 42,-25 24,0 37,19 37,47 0,31 -15,52 -36,52zm50 -190c-9,4 -14,5 -29,7 -52,8 -86,23 -86,116 0,55 24,86 65,86 33,0 60,-27 60,-71 0,-40 -22,-64 -55,-64 -17,0 -34,8 -47,23 5,-57 24,-61 68,-67 12,-2 21,-4 28,-9l-4 -21z"/>
   <path id="11" class="fil2" d="M2376 1311c18,0 33,-6 45,-14l-8 -15c-10,6 -22,11 -35,11 -26,0 -44,-19 -45,-48l92 0c1,-3 1,-9 1,-13 0,-40 -20,-65 -55,-65 -31,0 -61,28 -61,73 0,44 29,71 66,71zm-44 -83c3,-27 21,-42 40,-42 21,0 34,15 34,42l-74 0z"/>
   <path id="12" class="fil2" d="M2499 1311c30,0 56,-15 56,-41 0,-20 -13,-30 -29,-34l0 -1c14,-6 23,-18 23,-31 0,-25 -23,-37 -50,-37 -20,0 -35,6 -48,15l9 16c11,-8 22,-12 38,-12 16,0 28,7 28,20 0,14 -11,22 -33,22l-15 0 0 17 19 0c22,0 35,8 35,23 0,15 -16,25 -35,25 -13,0 -27,-4 -40,-14l-10 15c17,13 34,17 52,17z"/>
   <path id="13" class="fil2" d="M811 1667c34,0 64,-27 64,-72 0,-46 -30,-73 -64,-73 -33,0 -63,27 -63,73 0,45 30,72 63,72zm0 -20c-23,0 -39,-21 -39,-52 0,-32 16,-53 39,-53 24,0 40,21 40,53 0,31 -16,52 -40,52z"/>
   <polygon id="14" class="fil2" points="911,1663 934,1663 934,1545 997,1545 997,1526 911,1526 "/>
   <path id="15" class="fil2" d="M1027 1721l24 0 0 -46 -1 -24c13,10 25,16 38,16 32,0 60,-28 60,-74 0,-43 -19,-71 -55,-71 -16,0 -31,9 -44,20l0 0 -2 -16 -20 0 0 195zm57 -74c-9,0 -21,-4 -33,-14l0 -72c13,-13 25,-19 36,-19 26,0 36,20 36,51 0,33 -16,54 -39,54z"/>
   <path id="16" class="fil2" d="M1212 1667c17,0 32,-9 45,-20l1 0 2 16 20 0 0 -84c0,-34 -15,-57 -48,-57 -22,0 -42,10 -54,18l9 16c11,-7 25,-14 41,-14 22,0 28,17 28,34 -58,7 -84,22 -84,52 0,24 17,39 40,39zm7 -19c-14,0 -25,-7 -25,-22 0,-18 16,-29 62,-35l0 39c-13,11 -24,18 -37,18z"/>
   <polygon id="17" class="fil2" points="1323,1663 1346,1663 1346,1602 1412,1602 1412,1663 1435,1663 1435,1526 1412,1526 1412,1582 1346,1582 1346,1526 1323,1526 "/>
   <path id="18" class="fil2" d="M1482 1663l21 0 52 -78c5,-9 13,-21 18,-30l2 0c-2,18 -3,36 -3,51l0 57 23 0 0 -137 -22 0 -52 78c-5,9 -13,21 -18,30l-1 0c1,-18 2,-36 2,-51l0 -57 -22 0 0 137z"/>
   <path id="19" class="fil2" d="M1717 1663l23 0 0 -137 -23 0 0 64c-8,1 -15,2 -23,2 -25,0 -36,-8 -36,-29l0 -37 -23 0 0 37c0,35 20,48 55,48 12,0 17,-1 27,-3l0 55z"/>
   <path id="20" class="fil2" d="M1842 1667c18,0 33,-7 45,-14l-8 -16c-10,7 -21,11 -34,11 -27,0 -45,-19 -46,-48l92 0c1,-3 1,-8 1,-13 0,-39 -19,-65 -55,-65 -31,0 -61,28 -61,73 0,45 29,72 66,72zm-44 -83c3,-28 21,-43 40,-43 22,0 34,15 34,43l-74 0z"/>
   <polygon id="21" class="fil2" points="1926,1663 1949,1663 1949,1602 2016,1602 2016,1663 2039,1663 2039,1526 2016,1526 2016,1582 1949,1582 1949,1526 1926,1526 "/>
   <path id="22" class="fil2" d="M2085 1663l22 0 52 -78c5,-9 13,-21 18,-30l1 0c-1,18 -2,36 -2,51l0 57 22 0 0 -137 -21 0 -52 78c-5,9 -13,21 -18,30l-2 0c2,-18 3,-36 3,-51l0 -57 -23 0 0 137z"/>
   <path id="23" class="fil2" d="M2302 1501c32,0 43,-21 45,-43l-20 0c0,16 -6,30 -25,30 -18,0 -24,-14 -25,-30l-19 0c1,22 13,43 44,43zm-57 162l21 0 53 -78c4,-9 13,-21 18,-30l1 0c-1,18 -2,36 -2,51l0 57 22 0 0 -137 -22 0 -52 78c-4,9 -13,21 -18,30l-1 0c1,-18 2,-36 2,-51l0 -57 -22 0 0 137z"/>
   <path class="fil2" d="M355 2390l59 0c41,0 70,-18 70,-54 0,-26 -15,-40 -38,-45l0 -1c18,-5 27,-22 27,-40 0,-33 -26,-45 -63,-45l-55 0 0 185zm23 -106l0 -61 29 0c29,0 43,9 43,30 0,19 -13,31 -44,31l-28 0zm0 87l0 -69 32 0c33,0 51,10 51,33 0,25 -19,36 -51,36l-32 0z"/>
   <path id="1" class="fil2" d="M550 2393c18,0 33,-9 46,-19l1 0 2 16 19 0 0 -84c0,-34 -14,-57 -48,-57 -22,0 -41,10 -54,18l9 16c11,-7 25,-14 41,-14 23,0 28,16 28,34 -58,7 -84,22 -84,51 0,25 17,39 40,39zm7 -18c-14,0 -24,-7 -24,-22 0,-18 16,-29 61,-35l0 38c-13,12 -24,19 -37,19z"/>
   <polygon id="2" class="fil2" points="661,2390 826,2390 826,2253 804,2253 804,2371 755,2371 755,2253 733,2253 733,2371 684,2371 684,2253 661,2253 "/>
   <path id="3" class="fil2" d="M921 2393c21,0 33,-15 37,-45 3,-25 6,-51 9,-76l43 0 0 118 23 0 0 -137 -84 0c-4,29 -7,59 -11,89 -2,20 -9,29 -18,29 -3,0 -5,-1 -7,-1l-4 21c4,2 7,2 12,2z"/>
   <path id="4" class="fil2" d="M1079 2390l22 0 52 -79c5,-8 13,-20 18,-29l1 0c-1,18 -2,36 -2,51l0 57 23 0 0 -137 -22 0 -52 78c-5,8 -13,21 -18,29l-1 0c1,-17 2,-35 2,-50l0 -57 -23 0 0 137z"/>
   <path id="5" class="fil2" d="M1314 2390l23 0 0 -137 -23 0 0 64c-8,1 -14,2 -22,2 -25,0 -36,-8 -36,-29l0 -37 -23 0 0 37c0,35 20,48 54,48 13,0 18,-1 27,-3l0 55z"/>
   <polygon id="6" class="fil2" points="1384,2390 1407,2390 1407,2329 1473,2329 1473,2390 1496,2390 1496,2253 1473,2253 1473,2308 1407,2308 1407,2253 1384,2253 "/>
   <path id="7" class="fil2" d="M1543 2390l42 0c33,0 55,-13 55,-44 0,-30 -22,-43 -55,-43l-19 0 0 -50 -23 0 0 137zm23 -19l0 -50 17 0c23,0 34,8 34,25 0,18 -11,25 -34,25l-17 0zm98 19l23 0 0 -137 -23 0 0 137z"/>
   <path id="8" class="fil2" d="M1791 2228c31,0 43,-21 44,-43l-19 0c-1,16 -7,30 -25,30 -19,0 -25,-14 -26,-30l-19 0c1,22 13,43 45,43zm-58 162l22 0 52 -79c5,-8 13,-20 18,-29l1 0c-1,18 -2,36 -2,51l0 57 23 0 0 -137 -22 0 -52 78c-5,8 -13,21 -18,29l-1 0c1,-17 2,-35 2,-50l0 -57 -23 0 0 137z"/>
   <path id="9" class="fil2" d="M2004 2393c16,0 32,-6 44,-17l-10 -16c-9,8 -20,14 -32,14 -25,0 -43,-21 -43,-52 0,-32 18,-53 43,-53 11,0 20,5 28,12l12 -16c-10,-8 -23,-16 -41,-16 -35,0 -66,27 -66,73 0,45 28,71 65,71z"/>
   <path id="10" class="fil2" d="M2128 2393c19,0 33,-6 45,-14l-8 -15c-10,7 -21,11 -34,11 -26,0 -44,-19 -46,-48l93 0c0,-3 1,-8 1,-13 0,-40 -20,-65 -55,-65 -32,0 -62,28 -62,73 0,45 29,71 66,71zm-43 -83c3,-27 20,-42 39,-42 22,0 34,15 34,42l-73 0z"/>
   <path id="11" class="fil2" d="M2213 2448l23 0 0 -46 -1 -24c13,10 26,15 38,15 32,0 60,-27 60,-74 0,-42 -19,-70 -55,-70 -16,0 -31,9 -43,20l-1 0 -2 -16 -19 0 0 195zm56 -74c-9,0 -21,-4 -33,-14l0 -73c13,-12 25,-18 36,-18 26,0 37,20 37,50 0,34 -17,55 -40,55z"/>
   <path id="12" class="fil2" d="M2369 2390l56 0c31,0 54,-12 54,-39 0,-20 -13,-30 -29,-33l0 -1c14,-4 23,-14 23,-30 0,-24 -21,-34 -51,-34l-53 0 0 137zm23 -80l0 -41 28 0c21,0 30,8 30,21 0,12 -9,20 -32,20l-26 0zm0 63l0 -46 29 0c23,0 35,9 35,22 0,16 -11,24 -34,24l-30 0z"/>
   <path id="13" class="fil2" d="M2569 2393c18,0 33,-6 45,-14l-8 -15c-10,7 -21,11 -34,11 -27,0 -45,-19 -46,-48l92 0c1,-3 1,-8 1,-13 0,-40 -19,-65 -55,-65 -31,0 -61,28 -61,73 0,45 29,71 66,71zm-44 -83c3,-27 21,-42 40,-42 22,0 34,15 34,42l-74 0z"/>
   <path id="14" class="fil2" d="M2653 2448l23 0 0 -46 0 -24c13,10 25,15 38,15 31,0 59,-27 59,-74 0,-42 -19,-70 -54,-70 -16,0 -31,9 -44,20l-1 0 -2 -16 -19 0 0 195zm57 -74c-9,0 -21,-4 -34,-14l0 -73c14,-12 26,-18 37,-18 26,0 36,20 36,50 0,34 -16,55 -39,55z"/>
   <path class="fil2" d="M312 3142l0 146 -86 0c8,-12 14,-32 20,-63 6,-31 9,-51 14,-83l52 0zm24 146l0 -166 -94 0c-7,40 -10,62 -17,99 -9,49 -18,64 -26,67l-8 0 0 14 2 59 21 0 0 -53 119 0 0 53 21 0 2 -59 0 -14 -20 0z"/>
   <path id="1" class="fil2" d="M445 3311c18,0 33,-6 45,-14l-8 -15c-11,6 -22,10 -35,10 -26,0 -44,-18 -45,-47l92 0c1,-4 1,-9 1,-14 0,-39 -20,-64 -55,-64 -31,0 -61,27 -61,72 0,45 29,72 66,72zm-44 -83c3,-27 21,-43 40,-43 21,0 34,15 34,43l-74 0z"/>
   <polygon id="2" class="fil2" points="637,3289 637,3170 614,3170 614,3289 552,3289 552,3170 529,3170 529,3308 635,3308 635,3356 655,3356 657,3303 657,3289 "/>
   <path id="3" class="fil2" d="M741 3311c19,0 34,-6 46,-14l-9 -15c-10,6 -21,10 -34,10 -26,0 -44,-18 -46,-47l93 0c1,-4 1,-9 1,-14 0,-39 -20,-64 -55,-64 -31,0 -62,27 -62,72 0,45 30,72 66,72zm-43 -83c3,-27 20,-43 40,-43 21,0 34,15 34,43l-74 0z"/>
   <polygon id="4" class="fil2" points="826,3308 849,3308 849,3247 915,3247 915,3308 938,3308 938,3170 915,3170 915,3226 849,3226 849,3170 826,3170 "/>
   <polygon id="5" class="fil2" points="1015,3308 1038,3308 1038,3189 1084,3189 1084,3170 969,3170 969,3189 1015,3189 "/>
   <path id="6" class="fil2" d="M1115 3366l23 0 0 -47 -1 -24c13,10 26,16 39,16 31,0 59,-27 59,-74 0,-43 -19,-70 -54,-70 -17,0 -32,9 -44,19l-1 0 -2 -16 -19 0 0 196zm57 -74c-9,0 -22,-4 -34,-15l0 -72c13,-12 25,-19 37,-19 26,0 36,21 36,51 0,34 -17,55 -39,55z"/>
   <path id="7" class="fil2" d="M1299 3311c18,0 33,-9 46,-20l1 0 2 17 19 0 0 -85c0,-34 -14,-56 -48,-56 -22,0 -41,10 -54,18l9 16c11,-7 25,-15 41,-15 23,0 28,17 28,35 -58,6 -84,21 -84,51 0,25 17,39 40,39zm7 -19c-13,0 -24,-6 -24,-22 0,-17 16,-28 61,-34l0 38c-13,12 -24,18 -37,18z"/>
   <path id="8" class="fil2" d="M1402 3311c21,0 33,-15 37,-46 3,-25 6,-51 9,-76l42 0 0 119 24 0 0 -138 -85 0c-3,30 -6,60 -10,89 -3,21 -9,30 -18,30 -3,0 -5,-1 -7,-2l-4 22c4,1 7,2 12,2z"/>
   <path id="9" class="fil2" d="M1560 3308l22 0 52 -79c5,-8 13,-21 18,-29l1 0c-1,18 -2,36 -2,51l0 57 23 0 0 -138 -22 0 -52 79c-5,8 -13,21 -18,29l-1 0c1,-17 2,-36 2,-51l0 -57 -23 0 0 138z"/>
   <path id="10" class="fil2" d="M1759 3311c30,0 56,-16 56,-41 0,-20 -13,-30 -29,-34l0 -1c14,-6 23,-18 23,-31 0,-25 -24,-37 -50,-37 -20,0 -35,6 -49,15l10 15c11,-7 22,-12 37,-12 17,0 29,7 29,21 0,14 -11,22 -33,22l-16 0 0 17 19 0c23,0 35,7 35,23 0,15 -15,24 -34,24 -14,0 -27,-3 -40,-13l-10 15c16,13 33,17 52,17z"/>
   <path id="11" class="fil2" d="M1902 3311c34,0 64,-26 64,-72 0,-46 -30,-72 -64,-72 -33,0 -63,26 -63,72 0,46 30,72 63,72zm0 -19c-23,0 -39,-21 -39,-53 0,-31 16,-53 39,-53 24,0 40,22 40,53 0,32 -16,53 -40,53z"/>
   <path id="12" class="fil2" d="M2002 3308l55 0c32,0 54,-12 54,-40 0,-19 -13,-29 -28,-33l0 0c14,-5 22,-15 22,-30 0,-25 -20,-35 -50,-35l-53 0 0 138zm23 -80l0 -41 28 0c21,0 30,8 30,20 0,13 -9,21 -32,21l-26 0zm0 63l0 -46 28 0c23,0 35,8 35,22 0,15 -11,24 -33,24l-30 0z"/>
   <path id="13" class="fil2" d="M2177 3311c17,0 33,-9 46,-20l1 0 2 17 19 0 0 -85c0,-34 -14,-56 -48,-56 -22,0 -41,10 -54,18l9 16c11,-7 25,-15 41,-15 23,0 28,17 28,35 -58,6 -84,21 -84,51 0,25 17,39 40,39zm7 -19c-14,0 -24,-6 -24,-22 0,-17 16,-28 61,-34l0 38c-13,12 -24,18 -37,18z"/>
   <polygon id="14" class="fil2" points="2288,3308 2311,3308 2311,3247 2377,3247 2377,3308 2401,3308 2401,3170 2377,3170 2377,3226 2311,3226 2311,3170 2288,3170 "/>
   <polygon id="15" class="fil2" points="2447,3308 2470,3308 2470,3247 2536,3247 2536,3308 2559,3308 2559,3170 2536,3170 2536,3226 2470,3226 2470,3170 2447,3170 "/>
   <path id="16" class="fil2" d="M2606 3308l42 0c33,0 55,-14 55,-44 0,-30 -22,-43 -55,-43l-19 0 0 -51 -23 0 0 138zm23 -19l0 -50 17 0c23,0 34,8 34,25 0,17 -11,25 -34,25l-17 0zm98 19l23 0 0 -138 -23 0 0 138z"/>
   <path id="17" class="fil2" d="M2854 3146c31,0 43,-21 44,-43l-19 0c-1,16 -7,29 -25,29 -19,0 -25,-13 -26,-29l-19 0c1,22 13,43 45,43zm-58 162l22 0 52 -79c5,-8 13,-21 18,-29l1 0c-1,18 -2,36 -2,51l0 57 23 0 0 -138 -22 0 -52 79c-5,8 -13,21 -18,29l-1 0c1,-17 2,-36 2,-51l0 -57 -23 0 0 138z"/>
   <path class="fil2" d="M463 4050l59 0c42,0 70,-18 70,-55 0,-25 -15,-40 -37,-44l0 -1c17,-6 27,-22 27,-41 0,-32 -26,-45 -64,-45l-55 0 0 186zm23 -107l0 -60 29 0c29,0 43,8 43,30 0,19 -13,30 -44,30l-28 0zm0 88l0 -70 33 0c32,0 50,11 50,34 0,24 -18,36 -50,36l-33 0z"/>
   <path id="1" class="fil2" d="M694 3977l12 -27c7,-16 12,-18 20,-18 2,0 3,0 4,0l4 -22c-2,-1 -5,-1 -8,-1 -15,0 -25,5 -36,29l-13 31 -27 0 0 -57 -23 0 0 138 23 0 0 -62 27 0 38 62 26 0 -47 -73z"/>
   <path id="2" class="fil2" d="M760 4053c20,0 32,-15 36,-46 3,-25 6,-51 9,-76l43 0 0 119 23 0 0 -138 -84 0c-4,30 -7,60 -11,89 -2,21 -8,29 -18,29 -3,0 -4,0 -6,-1l-5 22c4,1 8,2 13,2z"/>
   <path id="3" class="fil2" d="M1030 4034c-23,0 -38,-21 -38,-53 0,-31 15,-53 38,-53 22,0 36,22 36,53 0,32 -14,53 -36,53zm-89 -65l0 -57 -23 0 0 138 23 0 0 -61 30 0c3,40 28,64 60,64 33,0 59,-26 59,-72 0,-46 -26,-72 -59,-72 -31,0 -56,22 -60,60l-30 0z"/>
   <path id="4" class="fil2" d="M1202 4050l23 0 0 -138 -23 0 0 64c-8,2 -15,3 -23,3 -25,0 -36,-9 -36,-29l0 -38 -23 0 0 38c0,34 20,48 55,48 12,0 17,-1 27,-3l0 55z"/>
   <path id="5" class="fil2" d="M1327 4053c18,0 33,-6 45,-14l-8 -15c-10,6 -21,10 -34,10 -27,0 -45,-18 -46,-47l92 0c1,-4 1,-9 1,-14 0,-39 -19,-64 -55,-64 -31,0 -61,27 -61,72 0,45 29,72 66,72zm-44 -83c3,-27 21,-43 40,-43 22,0 34,15 34,43l-74 0z"/>
   <polygon id="6" class="fil2" points="1411,4050 1434,4050 1434,3989 1501,3989 1501,4050 1524,4050 1524,3912 1501,3912 1501,3968 1434,3968 1434,3912 1411,3912 "/>
   <path id="7" class="fil2" d="M1570 4050l22 0 52 -79c5,-8 13,-21 18,-29l1 0c-1,18 -2,36 -2,51l0 57 22 0 0 -138 -21 0 -52 79c-5,8 -13,21 -18,29l-2 0c2,-18 3,-36 3,-51l0 -57 -23 0 0 138z"/>
   <path id="8" class="fil2" d="M1785 4053c19,0 34,-6 46,-14l-8 -15c-11,6 -22,10 -35,10 -26,0 -44,-18 -45,-47l92 0c1,-4 1,-9 1,-14 0,-39 -20,-64 -55,-64 -31,0 -61,27 -61,72 0,45 29,72 65,72zm-43 -83c3,-27 21,-43 40,-43 21,0 34,15 34,43l-74 0z"/>
   <path id="9" class="fil2" d="M1980 4053c34,0 64,-26 64,-72 0,-46 -30,-72 -64,-72 -34,0 -64,26 -64,72 0,46 30,72 64,72zm0 -19c-24,0 -40,-21 -40,-53 0,-31 16,-53 40,-53 24,0 40,22 40,53 0,32 -16,53 -40,53z"/>
   <path id="10" class="fil2" d="M2114 3931l43 0 0 100 -63 0c6,-10 11,-26 14,-53l6 -47zm67 100l0 -119 -86 0 -7 61c-5,44 -12,53 -19,58l-7 0 0 14 2 53 21 0 0 -48 93 0 0 48 20 0 3 -53 0 -14 -20 0z"/>
   <polygon id="11" class="fil2" points="2230,4050 2253,4050 2253,3989 2319,3989 2319,4050 2343,4050 2343,3912 2319,3912 2319,3968 2253,3968 2253,3912 2230,3912 "/>
   <path id="12" class="fil2" d="M2442 4053c34,0 64,-26 64,-72 0,-46 -30,-72 -64,-72 -33,0 -63,26 -63,72 0,46 30,72 63,72zm0 -19c-23,0 -39,-21 -39,-53 0,-31 16,-53 39,-53 24,0 40,22 40,53 0,32 -16,53 -40,53z"/>
   <path id="13" class="fil2" d="M2600 3888c31,0 43,-21 44,-44l-19 0c-1,17 -7,30 -25,30 -19,0 -25,-13 -26,-30l-19 0c1,23 13,44 45,44zm-58 162l22 0 52 -79c5,-8 13,-21 18,-29l1 0c-1,18 -2,36 -2,51l0 57 22 0 0 -138 -21 0 -52 79c-5,8 -13,21 -18,29l-2 0c2,-18 3,-36 3,-51l0 -57 -23 0 0 138z"/>
   <path id="14" class="fil2" d="M1120 4333l11 -28c7,-16 13,-18 20,-18 2,0 3,0 5,0l4 -21c-2,-1 -5,-2 -8,-2 -15,0 -26,6 -36,30l-14 30 -27 0 0 -56 -23 0 0 137 23 0 0 -62 28 0 38 62 25 0 -46 -72z"/>
   <polygon id="15" class="fil2" points="1193,4405 1216,4405 1216,4344 1282,4344 1282,4405 1306,4405 1306,4268 1282,4268 1282,4323 1216,4323 1216,4268 1193,4268 "/>
   <path id="16" class="fil2" d="M1405 4408c34,0 64,-26 64,-71 0,-47 -30,-73 -64,-73 -33,0 -63,26 -63,73 0,45 30,71 63,71zm0 -19c-23,0 -39,-21 -39,-52 0,-32 16,-54 39,-54 24,0 40,22 40,54 0,31 -16,52 -40,52z"/>
   <polygon id="17" class="fil2" points="1505,4405 1528,4405 1528,4287 1592,4287 1592,4405 1615,4405 1615,4268 1505,4268 "/>
   <path id="18" class="fil2" d="M1729 4333l11 -28c7,-16 13,-18 20,-18 2,0 3,0 5,0l4 -21c-2,-1 -5,-2 -8,-2 -15,0 -26,6 -36,30l-14 30 -26 0 0 -56 -24 0 0 137 24 0 0 -62 27 0 38 62 25 0 -46 -72z"/>
   <path id="19" class="fil2" d="M1851 4408c33,0 63,-26 63,-71 0,-47 -30,-73 -63,-73 -34,0 -64,26 -64,73 0,45 30,71 64,71zm0 -19c-24,0 -40,-21 -40,-52 0,-32 16,-54 40,-54 24,0 39,22 39,54 0,31 -15,52 -39,52z"/>
   <path id="20" class="fil2" d="M2008 4243c32,0 43,-21 44,-43l-19 0c0,16 -6,29 -25,29 -19,0 -25,-13 -25,-29l-19 0c1,22 12,43 44,43zm-57 162l21 0 52 -79c5,-8 13,-21 18,-29l2 0c-2,18 -3,36 -3,51l0 57 23 0 0 -137 -22 0 -52 78c-5,8 -13,21 -18,29l-1 0c1,-17 2,-36 2,-50l0 -57 -22 0 0 137z"/>
  </g>
 </g>
</svg>
